<?xml version="1.0" encoding="utf-8"?>
<!-- Generator: Adobe Illustrator 23.0.1, SVG Export Plug-In . SVG Version: 6.00 Build 0)  -->
<svg version="1.1" id="Layer_1" xmlns="http://www.w3.org/2000/svg" xmlns:xlink="http://www.w3.org/1999/xlink" x="0px" y="0px"
	 viewBox="0 0 200 200" style="enable-background:new 0 0 200 200;" xml:space="preserve">
<style type="text/css">
	.st0{fill:#DDDB99;}
	.st1{fill:#4D4D4D;stroke:#FFFFFF;stroke-miterlimit:10;}
	.st2{fill:#BE1E2D;}
	.st3{fill:#FFFFFF;}
	.st4{fill:#2B2831;stroke:#FFFFFF;stroke-miterlimit:10;}
	.st5{fill:#2B2831;}
</style>
<g>
	<rect x="8.27" y="92.05" class="st0" width="180.04" height="10.96"/>
	<g>
		<path class="st1" d="M152.33,97.64c0-1.87-0.09-3.72-0.28-5.53l12.85-12.26l-18.01-31.19l-17.18,5.03
			c-2.86-2.05-5.92-3.82-9.16-5.28L116.31,31H80.29l-4.23,17.4c-3.24,1.46-6.3,3.23-9.16,5.28l-17.18-5.03L31.7,79.85l12.84,12.26
			c-0.19,1.81-0.28,3.66-0.28,5.53c0,1.78,0.09,3.53,0.26,5.27L31.7,115.15l18.01,31.19l16.9-4.95c2.96,2.14,6.14,3.99,9.51,5.51
			L80.29,164h36.02l4.16-17.09c3.37-1.52,6.55-3.37,9.51-5.51l16.91,4.95l18.01-31.19l-12.82-12.25
			C152.24,101.17,152.33,99.41,152.33,97.64z"/>
		<g>
			<g>
				<path class="st2" d="M98.88,137.4c-22.67,0-41.11-18.44-41.11-41.11c0-22.67,18.44-41.11,41.11-41.11v8.31
					c-18.08,0-32.8,14.72-32.8,32.8c0,18.09,14.72,32.81,32.8,32.81c18.09,0,32.8-14.72,32.8-32.81h8.31
					C139.99,118.96,121.55,137.4,98.88,137.4z"/>
			</g>
		</g>
		<g>
			<path class="st3" d="M114.18,111.78c-9.1,8.32-23.22,7.69-31.54-1.42c-8.32-9.08-7.7-23.22,1.41-31.55
				c9.1-8.31,23.22-7.67,31.54,1.43C123.92,89.32,123.28,103.45,114.18,111.78z"/>
			<polygon class="st4" points="123.18,73.3 96.14,91.42 102.71,98.6 			"/>
			<path class="st5" d="M105.93,102.74c-4.12,3.77-10.5,3.48-14.26-0.64c-3.76-4.11-3.48-10.5,0.64-14.27
				c4.11-3.76,10.5-3.47,14.26,0.64C110.34,92.59,110.05,98.98,105.93,102.74z"/>
		</g>
	</g>
</g>
</svg>
