<?xml version="1.0" encoding="utf-8"?>
<!-- Generator: Adobe Illustrator 23.0.1, SVG Export Plug-In . SVG Version: 6.00 Build 0)  -->
<svg version="1.1" id="Layer_1" xmlns="http://www.w3.org/2000/svg" xmlns:xlink="http://www.w3.org/1999/xlink" x="0px" y="0px"
	 viewBox="0 0 200 150" style="enable-background:new 0 0 200 150;" xml:space="preserve">
<style type="text/css">
	.st0{fill:#FFFFFF;}
	.st1{font-family:'BerlinSansFB-Reg';}
	.st2{font-size:17.1127px;}
	.st3{fill:#FFFFFF;stroke:#34495E;stroke-width:1.7986;stroke-miterlimit:10;}
	.st4{font-family:'BerlinSansFBDemi-Bold';}
	.st5{font-size:22.1606px;}
</style>
<path class="st0" d="M50.97,35.78l-0.14-15.88l-4.06-0.38l-1.64,8.44c-2.93,0.65-5.65,1.83-8.07,3.44l-6.75-4.89l-5.24,5.07
	l5.68,6.79l0,0c-1.75,2.55-3.18,4.88-3.83,8.01l-7.74,1.36v7.17l7.74,1.15c0.57,2.75,1.61,5.32,3.04,7.64l-4.26,7.34l4.17,4.04
	l7.34-3.92c2.4,1.57,5.1,2.73,7.99,3.36l1.95,7.64l4.2,0.01l-0.13-15.04c0,0-14.12-1.43-13.76-16.1
	C37.47,51.03,36.41,38.96,50.97,35.78z"/>
<path class="st0" d="M148.58,35.78l0.14-15.88l4.06-0.38l1.64,8.44c2.93,0.65,5.65,1.83,8.07,3.44l6.75-4.89l5.24,5.07l-5.68,6.79
	l0,0c1.75,2.55,3.18,4.88,3.83,8.01l7.74,1.36v7.17l-7.74,1.15c-0.57,2.75-1.61,5.32-3.04,7.64l4.26,7.34l-4.17,4.04l-7.34-3.92
	c-2.4,1.57-5.1,2.73-7.99,3.36l-1.95,7.64l-4.2,0.01l0.13-15.04c0,0,14.12-1.43,13.76-16.1C162.08,51.03,163.15,38.96,148.58,35.78z
	"/>
<g>
	<path class="st0" d="M124.08,67.19l-15.16-14.17l-7.79,7.23l15.6,14.58c-1.53,4.4-2.23,8.89,2.1,13.46
		c2.64,2.79,6.52,5.87,12.23,5.3l-9.27-8.4l13.52-13.28l9.45,8.92c0.95-5.44-2.24-9.22-4.88-11.68
		C135.32,64.9,129.34,65.09,124.08,67.19z"/>
	<path class="st0" d="M81.43,27.34c2.22-4.89,2.64-10.19-1.9-14.42c-2.64-2.46-6.02-5.36-11.86-4.48l8.34,7.76L61.94,29.31
		l-8.9-8.41c-0.62,5.32,2.66,8.97,5.65,11.43c4.91,4.05,10.04,3.53,14.78,2.08l15.92,14.87l7.79-7.23L81.43,27.34z"/>
</g>
<path class="st0" d="M145.24,20.92l-9.02,8.63l-14.26-12.59l9.58-8.81c-5.84-0.88-9.89,2.09-12.54,4.55
	c-4.56,4.25-4.35,9.82-2.1,14.72L74.13,67.16c-5.25-2.07-10.93-2.46-15.48,1.77c-2.64,2.46-5.76,5.61-4.81,11.05l8.33-7.77
	l14.07,13.11l-9.02,8.29c5.71,0.57,9.63-2.48,12.27-5.26c4.34-4.58,3.79-9.35,2.23-13.77l43.39-40.31
	c4.72,1.42,9.55,2.07,14.44-1.95C142.54,29.86,145.86,26.24,145.24,20.92z M101.67,50.97c0,1.11-0.98,2.03-2.17,2.03
	c-1.2,0-2.17-0.91-2.17-2.03v0c0-1.11,0.98-2.03,2.17-2.03C100.69,48.95,101.67,49.86,101.67,50.97L101.67,50.97z"/>
<g>
	<text transform="matrix(1.0205 0 0 1 6.4677 143.7219)" class="st0 st1 st2">Either Two or Four Wheels</text>
</g>
<line class="st3" x1="0.18" y1="121.27" x2="200.18" y2="121.27"/>
<text transform="matrix(1 0 0 1 45.6498 115.5039)" class="st0 st4 st5">AutoMotive</text>
</svg>
