<?xml version="1.0" encoding="utf-8"?>
<!-- Generator: Adobe Illustrator 23.0.1, SVG Export Plug-In . SVG Version: 6.00 Build 0)  -->
<svg version="1.1" id="Layer_1" xmlns="http://www.w3.org/2000/svg" xmlns:xlink="http://www.w3.org/1999/xlink" x="0px" y="0px"
	 viewBox="0 0 465.09 88.21" style="enable-background:new 0 0 465.09 88.21;" xml:space="preserve">
<style type="text/css">
	.st0{fill:#FFFFFF;}
	.st1{fill:#FFFFFF;stroke:#34495E;stroke-width:1.7986;stroke-miterlimit:10;}
</style>
<path class="st0" d="M40.63,29.95L40.5,15.32l-3.98-0.35l-1.6,7.77c-2.87,0.6-5.54,1.69-7.9,3.17l-6.62-4.5l-5.13,4.67l5.56,6.26
	l0,0c-1.72,2.35-3.11,4.49-3.75,7.39l-7.59,1.25v6.61l7.59,1.06c0.56,2.53,1.58,4.91,2.98,7.04l-4.17,6.76l4.08,3.72l7.2-3.61
	c2.35,1.45,4.99,2.51,7.83,3.1l1.91,7.04l4.11,0.01l-0.12-13.86c0,0-13.83-1.32-13.49-14.84C27.4,44.01,26.36,32.88,40.63,29.95z"/>
<path class="st0" d="M136.27,29.95l0.13-14.64l3.98-0.35l1.6,7.77c2.87,0.6,5.54,1.69,7.9,3.17l6.62-4.5l5.13,4.67l-5.56,6.26l0,0
	c1.72,2.35,3.11,4.49,3.75,7.39l7.59,1.25v6.61l-7.59,1.06c-0.56,2.53-1.58,4.91-2.98,7.04l4.17,6.76l-4.08,3.72l-7.2-3.61
	c-2.35,1.45-4.99,2.51-7.83,3.1L140,72.7l-4.11,0.01l0.12-13.86c0,0,13.83-1.32,13.49-14.84C149.5,44.01,150.54,32.88,136.27,29.95z
	"/>
<g>
	<path class="st0" d="M112.26,58.65L97.4,45.59l-7.63,6.67l15.29,13.44c-1.5,4.06-2.18,8.2,2.06,12.4
		c2.59,2.57,6.39,5.41,11.98,4.88l-9.08-7.74l13.24-12.24l9.26,8.22c0.93-5.02-2.19-8.49-4.79-10.76
		C123.27,56.53,117.42,56.71,112.26,58.65z"/>
	<path class="st0" d="M70.47,21.92c2.18-4.51,2.59-9.39-1.86-13.29c-2.59-2.27-5.9-4.94-11.62-4.13l8.17,7.15L51.37,23.74
		l-8.72-7.75c-0.6,4.9,2.6,8.27,5.54,10.54c4.81,3.73,9.84,3.26,14.48,1.92l15.6,13.71l7.63-6.67L70.47,21.92z"/>
</g>
<path class="st0" d="M133,16.26l-8.84,7.96l-13.97-11.61l9.38-8.12c-5.73-0.81-9.69,1.92-12.29,4.19
	c-4.47,3.92-4.27,9.05-2.06,13.57L63.32,58.88c-5.15-1.91-10.71-2.27-15.17,1.63c-2.59,2.27-5.64,5.17-4.71,10.18l8.16-7.16
	l13.79,12.08l-8.84,7.64c5.59,0.53,9.43-2.28,12.02-4.85c4.26-4.22,3.72-8.62,2.19-12.69l42.51-37.15c4.63,1.31,9.35,1.91,14.15-1.8
	C130.36,24.5,133.6,21.16,133,16.26z M90.3,43.96c0,1.03-0.96,1.87-2.13,1.87c-1.17,0-2.13-0.84-2.13-1.87v0
	c0-1.03,0.96-1.87,2.13-1.87C89.34,42.09,90.3,42.93,90.3,43.96L90.3,43.96z"/>
<g>
	<path class="st0" d="M210.52,39.74c0,0.3-0.22,0.52-0.67,0.63c-0.53,0.14-2.19,0.2-4.96,0.2c-2.54,0-4.18-0.07-4.91-0.2
		c-0.6-0.12-0.99-0.5-1.15-1.14c-0.6-2.43-1.08-3.73-1.41-3.9c-0.28-0.12-2.67-0.18-7.15-0.18c-3.02,0-4.63,0.08-4.83,0.23
		c-0.3,0.27-0.64,1.17-1.01,2.71c-0.34,1.4-0.75,2.16-1.23,2.28c-0.6,0.14-2.63,0.2-6.08,0.2c-2.72,0-4.08-0.24-4.08-0.73
		c0-0.44,2.01-5.84,6.03-16.19c4.36-11.2,6.72-17.36,7.09-18.47c0.21-0.64,0.46-0.96,0.75-0.96c0.48,0,1.22,0.04,2.23,0.13
		c1,0.08,1.76,0.13,2.25,0.13c0.48,0,1.19-0.03,2.12-0.09c0.93-0.06,1.63-0.09,2.09-0.09c0.34,0,0.65,0.28,0.93,0.84
		c0.87,1.77,3.41,7.86,7.63,18.25C208.4,33.82,210.52,39.28,210.52,39.74z M191.61,16.65c-0.37,0.74-1,2.36-1.89,4.84
		c-0.96,2.64-1.44,4.18-1.44,4.64c0,0.3,0.53,0.47,1.6,0.51c0.55,0.03,1.46,0.05,2.72,0.05c1.17,0,1.82-0.14,1.95-0.41
		c0.04-0.08,0.05-0.2,0.05-0.35c0-0.56-0.41-2.09-1.23-4.61C192.57,18.88,191.99,17.33,191.61,16.65z"/>
	<path class="st0" d="M240.49,17.33c0,1.25-0.06,3.13-0.19,5.63c-0.12,2.5-0.19,4.38-0.19,5.63c0,1.22,0.04,3.04,0.13,5.47
		c0.09,2.43,0.13,4.25,0.13,5.45c0,0.46-0.22,0.74-0.67,0.86c-0.68,0.17-2.11,0.25-4.29,0.25c-1.94,0-3.29-0.05-4.05-0.15
		c-0.34-0.05-0.55-0.25-0.64-0.61c-0.05-0.51-0.11-1.01-0.16-1.52c-0.09-0.78-0.21-1.17-0.37-1.17c0.25,0-0.65,0.57-2.69,1.72
		c-2.04,1.15-3.9,1.72-5.57,1.72c-4.71,0-7.5-2.02-8.37-6.06c-0.39-1.88-0.59-4.6-0.59-8.16c0-3.85,0.33-6.89,0.99-9.12
		c0.2-0.69,0.56-1.04,1.09-1.04c0.82,0,2.06,0.01,3.73,0.03c1.67,0.02,2.91,0.03,3.73,0.03c0.55,0,0.83,0.22,0.83,0.66
		c0,0.12-0.02,0.3-0.05,0.53c-0.37,2.3-0.56,4.63-0.56,6.99c0,2.94,0.1,4.95,0.29,6.03c0.32,1.86,1.48,2.79,3.49,2.79
		c0.78,0,1.63-0.33,2.55-0.99c0.92-0.66,1.39-1.34,1.43-2.05c0.04-0.63,0.05-4.87,0.05-12.72c0-0.56,0.04-0.89,0.13-0.99
		c0.11-0.17,0.43-0.25,0.96-0.25c0.87,0,2.18,0.01,3.93,0.03c1.75,0.02,3.06,0.03,3.93,0.03c0.53,0,0.84,0.13,0.93,0.38
		C240.47,16.86,240.49,17.06,240.49,17.33z"/>
	<path class="st0" d="M262.72,32.95c0,0.51-0.07,1.28-0.2,2.31c-0.13,1.03-0.2,1.79-0.2,2.27c0,0.48-0.05,0.79-0.16,0.92
		c-0.11,0.14-0.4,0.33-0.88,0.58c-2.29,1.2-4.84,1.8-7.63,1.8c-5.14,0-7.71-1.87-7.71-5.6c0-1.12,0.04-2.79,0.13-5.03
		c0.09-2.24,0.13-3.92,0.13-5.03c0-0.74-0.45-1.12-1.36-1.12c-0.07,0-0.19,0-0.35,0c-0.16,0.02-0.28,0.03-0.35,0.03
		c-0.68,0-1.01-0.23-1.01-0.68c0-0.27,0.02-0.68,0.07-1.24s0.07-0.97,0.07-1.24c0-0.35-0.02-0.9-0.07-1.62
		c-0.04-0.73-0.07-1.27-0.07-1.62c0-0.34,0.57-0.52,1.71-0.56c0.64-0.02,0.99-0.19,1.04-0.51c0.11-0.64,0.14-1.66,0.11-3.04
		c-0.07-2.18-0.11-3.22-0.11-3.12c0-1.96,0.2-2.94,0.59-2.94c0.48,0,1.16,0.1,2.05,0.3c1.01,0.22,1.72,0.35,2.11,0.38
		c0.91,0.12,2.27,0.28,4.11,0.48c0.44,0.03,0.67,0.18,0.67,0.43c0,0.68-0.06,1.7-0.17,3.07c-0.12,1.37-0.17,2.4-0.17,3.09
		c0,0.83,0.26,1.24,0.77,1.24c0.62,0,1.56-0.03,2.83-0.08c1.26-0.05,2.21-0.08,2.85-0.08c0.39,0,0.59,0.13,0.59,0.38
		c0,0.39-0.04,0.97-0.13,1.75c-0.09,0.78-0.13,1.36-0.13,1.75c0,0.41,0.01,1,0.03,1.77c0.02,0.78,0.03,1.37,0.03,1.77
		c0,0.35-0.26,0.53-0.77,0.53c-0.36,0-0.95-0.01-1.79-0.04c-0.84-0.03-1.43-0.04-1.79-0.04h-2c-0.27,0-0.4,0.37-0.4,1.11
		c0,0.41,0,1.01,0,1.8c0.02,0.81,0.03,1.41,0.03,1.8c0,1.42,0.17,2.4,0.51,2.94c0.48,0.73,1.42,1.09,2.83,1.09
		c0.44,0,1.08-0.1,1.91-0.29s1.41-0.29,1.75-0.29C262.54,32.39,262.72,32.57,262.72,32.95z"/>
	<path class="st0" d="M291.17,27.9c0,3.85-1.24,6.98-3.72,9.38c-2.48,2.4-5.74,3.6-9.77,3.6c-3.91,0-7.13-1.18-9.65-3.55
		c-2.52-2.37-3.79-5.41-3.79-9.12c0-3.92,1.21-7.1,3.63-9.54c2.42-2.44,5.69-3.66,9.81-3.66c4.02,0,7.27,1.2,9.76,3.59
		C289.93,20.98,291.17,24.08,291.17,27.9z M282.43,27.9c0-1.33-0.44-2.51-1.31-3.54c-0.87-1.02-2-1.53-3.39-1.53
		c-1.4,0-2.56,0.52-3.47,1.57c-0.85,0.98-1.28,2.15-1.28,3.5c0,1.37,0.43,2.54,1.28,3.52c0.91,1.05,2.06,1.57,3.47,1.57
		c1.39,0,2.53-0.52,3.44-1.57C282.01,30.45,282.43,29.27,282.43,27.9z"/>
	<path class="st0" d="M334.34,39.58c0,0.52-0.26,0.79-0.77,0.79h-9.44c-0.52,0-0.77-0.3-0.77-0.89c0-1.71,0.07-4.27,0.2-7.68
		c0.13-3.41,0.2-5.97,0.2-7.68c0-0.49-0.08-0.75-0.24-0.79c-0.2,0.1-1.39,2.71-3.57,7.83c-1.28,3.01-2.56,6.01-3.84,9
		c-0.18,0.39-0.4,0.62-0.67,0.68c-0.09,0.02-0.44,0.03-1.07,0.03c-0.92,0-1.48-0.17-1.65-0.51c-0.96-1.86-2.22-4.56-3.79-8.11
		c-1.67-3.75-2.92-6.46-3.76-8.13c-0.04-0.08-0.12-0.18-0.24-0.28c-0.12,0.15-0.19,0.4-0.19,0.73c0,1.66,0.04,4.14,0.13,7.45
		c0.09,3.31,0.13,5.79,0.13,7.45c0,0.59-0.25,0.89-0.75,0.89h-8.91c-0.36,0-0.57-0.05-0.65-0.16c-0.08-0.11-0.12-0.3-0.12-0.57
		c0-1.84,0.09-4.61,0.28-8.3c0.19-3.69,0.28-6.46,0.28-8.3c0-1.96-0.09-5.63-0.27-11.02c-0.02-1.4-0.1-3.49-0.24-6.26l-0.03-0.43
		c-0.02-0.34,0.36-0.51,1.12-0.51c0.98,0,2.44-0.03,4.4-0.09c1.95-0.06,3.42-0.09,4.4-0.09c0.19,0,0.47,0.35,0.83,1.06l7.79,16.24
		c0.55,1.1,1.01,1.65,1.39,1.65c0.19,0,0.61-0.63,1.25-1.9c1.79-3.55,4.45-8.9,7.97-16.04c0.3-0.66,0.63-0.99,0.99-0.99
		c0.52,0,1.29,0.03,2.33,0.08c1.04,0.05,1.83,0.08,2.36,0.08c0.44,0,1.12-0.04,2.04-0.13s1.6-0.13,2.04-0.13
		c0.53,0,0.8,0.2,0.8,0.61c0,1.99-0.08,4.97-0.23,8.93c-0.15,3.96-0.23,6.94-0.23,8.93c0,1.84,0.08,4.6,0.24,8.29
		C334.26,35.01,334.34,37.76,334.34,39.58z"/>
	<path class="st0" d="M364.76,27.9c0,3.85-1.24,6.98-3.72,9.38c-2.48,2.4-5.74,3.6-9.77,3.6c-3.91,0-7.13-1.18-9.65-3.55
		c-2.52-2.37-3.79-5.41-3.79-9.12c0-3.92,1.21-7.1,3.63-9.54c2.42-2.44,5.69-3.66,9.81-3.66c4.02,0,7.27,1.2,9.76,3.59
		C363.52,20.98,364.76,24.08,364.76,27.9z M356.02,27.9c0-1.33-0.44-2.51-1.31-3.54c-0.87-1.02-2-1.53-3.39-1.53
		c-1.4,0-2.56,0.52-3.47,1.57c-0.85,0.98-1.28,2.15-1.28,3.5c0,1.37,0.43,2.54,1.28,3.52c0.91,1.05,2.06,1.57,3.47,1.57
		c1.39,0,2.53-0.52,3.44-1.57C355.6,30.45,356.02,29.27,356.02,27.9z"/>
	<path class="st0" d="M385.83,32.95c0,0.51-0.07,1.28-0.2,2.31c-0.13,1.03-0.2,1.79-0.2,2.27c0,0.48-0.05,0.79-0.16,0.92
		c-0.11,0.14-0.4,0.33-0.88,0.58c-2.29,1.2-4.84,1.8-7.63,1.8c-5.14,0-7.71-1.87-7.71-5.6c0-1.12,0.04-2.79,0.13-5.03
		c0.09-2.24,0.13-3.92,0.13-5.03c0-0.74-0.45-1.12-1.36-1.12c-0.07,0-0.19,0-0.35,0c-0.16,0.02-0.27,0.03-0.35,0.03
		c-0.68,0-1.01-0.23-1.01-0.68c0-0.27,0.02-0.68,0.07-1.24c0.04-0.56,0.07-0.97,0.07-1.24c0-0.35-0.02-0.9-0.07-1.62
		c-0.05-0.73-0.07-1.27-0.07-1.62c0-0.34,0.57-0.52,1.71-0.56c0.64-0.02,0.99-0.19,1.04-0.51c0.11-0.64,0.14-1.66,0.11-3.04
		c-0.07-2.18-0.11-3.22-0.11-3.12c0-1.96,0.19-2.94,0.59-2.94c0.48,0,1.16,0.1,2.05,0.3c1.01,0.22,1.71,0.35,2.11,0.38
		c0.91,0.12,2.27,0.28,4.11,0.48c0.44,0.03,0.67,0.18,0.67,0.43c0,0.68-0.06,1.7-0.17,3.07c-0.12,1.37-0.17,2.4-0.17,3.09
		c0,0.83,0.26,1.24,0.77,1.24c0.62,0,1.56-0.03,2.83-0.08c1.26-0.05,2.21-0.08,2.85-0.08c0.39,0,0.59,0.13,0.59,0.38
		c0,0.39-0.04,0.97-0.13,1.75c-0.09,0.78-0.13,1.36-0.13,1.75c0,0.41,0.01,1,0.03,1.77c0.02,0.78,0.03,1.37,0.03,1.77
		c0,0.35-0.26,0.53-0.77,0.53c-0.36,0-0.95-0.01-1.79-0.04c-0.84-0.03-1.43-0.04-1.79-0.04h-2c-0.27,0-0.4,0.37-0.4,1.11
		c0,0.41,0,1.01,0,1.8c0.02,0.81,0.03,1.41,0.03,1.8c0,1.42,0.17,2.4,0.51,2.94c0.48,0.73,1.42,1.09,2.83,1.09
		c0.44,0,1.08-0.1,1.91-0.29s1.41-0.29,1.75-0.29C385.64,32.39,385.83,32.57,385.83,32.95z"/>
	<path class="st0" d="M398.49,28.74c0,1.23,0.03,3.07,0.08,5.51c0.05,2.44,0.08,4.27,0.08,5.49c0,0.35-0.22,0.57-0.67,0.63
		c-0.6,0.1-1.96,0.15-4.08,0.15c-2.13,0-3.5-0.05-4.11-0.15c-0.39-0.07-0.63-0.18-0.72-0.33c-0.04-0.07-0.05-0.32-0.05-0.76
		c0-1.17,0.03-2.92,0.08-5.26c0.05-2.34,0.08-4.1,0.08-5.28c0-4.8-0.2-8.62-0.59-11.45c-0.04-0.27-0.05-0.45-0.05-0.53
		c0-0.34,0.24-0.51,0.72-0.51c0.5,0,1.26,0.05,2.28,0.15c1.02,0.1,1.79,0.15,2.31,0.15c0.52,0,1.29-0.04,2.32-0.13
		c1.03-0.08,1.8-0.13,2.32-0.13c0.43,0,0.64,0.17,0.64,0.51c0,0.07-0.02,0.23-0.05,0.48C398.69,20.58,398.49,24.4,398.49,28.74z
		 M399.18,9.91c0,2.94-1.74,4.41-5.23,4.41c-1.49,0-2.73-0.37-3.71-1.12c-1.07-0.81-1.6-1.91-1.6-3.29c0-1.32,0.55-2.4,1.65-3.24
		c1.01-0.78,2.23-1.17,3.65-1.17c1.39,0,2.59,0.4,3.6,1.19C398.64,7.54,399.18,8.61,399.18,9.91z"/>
	<path class="st0" d="M429.28,22.78c0,2.89-0.1,4.6-0.29,5.12c-0.41,1.2-1.63,3.24-3.68,6.11c-1.78,2.47-3.3,4.39-4.56,5.78
		c-0.46,0.52-1.86,0.79-4.19,0.79c-2.03,0-3.34-0.07-3.95-0.2c-0.37-0.08-0.68-0.25-0.93-0.51c-1.07-1.1-2.59-3.01-4.56-5.73
		c-2.12-2.92-3.38-4.92-3.79-6.01c-0.44-1.17-0.67-2.91-0.67-5.25c0-0.66,0.01-1.65,0.03-2.98c0.02-1.33,0.03-2.33,0.03-3
		c0-0.44,0.31-0.66,0.93-0.66c0.91,0,2.27,0.03,4.09,0.08s3.19,0.08,4.09,0.08c0.41,0,0.61,0.26,0.61,0.79
		c0,0.47-0.04,1.19-0.11,2.14c-0.07,0.95-0.11,1.68-0.11,2.17c0,1.76,0.05,3.19,0.16,4.31c0.05,0.57,0.57,1.66,1.55,3.24
		c1.01,1.67,1.75,2.51,2.21,2.51c0.44,0,1.16-0.82,2.13-2.46c0.94-1.54,1.45-2.59,1.52-3.14c0.14-1.2,0.21-2.65,0.21-4.36
		c0-0.49-0.05-1.23-0.16-2.22c-0.11-0.99-0.16-1.72-0.16-2.19c0-0.52,0.19-0.79,0.56-0.79c0.43,0,1.06,0.01,1.91,0.03
		c0.84,0.02,1.48,0.03,1.91,0.03c0.43,0,1.07-0.03,1.93-0.1c0.86-0.07,1.51-0.1,1.93-0.1c0.44,0,0.74,0.22,0.88,0.66
		C429.13,17.87,429.28,19.83,429.28,22.78z"/>
	<path class="st0" d="M457.33,26.61c0,1.71-0.58,2.68-1.73,2.91c-0.2,0.03-2.04,0.22-5.52,0.56c-2.1,0.22-5.23,0.48-9.39,0.79
		c0.25,1.1,1,1.93,2.27,2.51c1.03,0.47,2.2,0.71,3.52,0.71c1.58,0,3.17-0.41,4.77-1.22c0.68-0.41,1.35-0.81,2.03-1.22
		c0.37,0.17,1,1.03,1.88,2.58c0.88,1.55,1.32,2.54,1.32,2.97c0,0.12-0.13,0.31-0.4,0.58c-2.17,2.21-5.54,3.32-10.11,3.32
		c-4.23,0-7.64-1.17-10.24-3.52c-2.67-2.38-4-5.57-4-9.55c0-3.89,1.19-7.07,3.57-9.55c2.45-2.57,5.71-3.85,9.76-3.85
		c3.41,0,6.31,1.18,8.69,3.55C456.14,20.54,457.33,23.35,457.33,26.61z M448,25.06c0-1.05-0.39-1.97-1.17-2.76
		c-0.78-0.79-1.72-1.19-2.8-1.19c-1.12,0-2.04,0.45-2.77,1.34c-0.68,0.83-1.01,1.8-1.01,2.91c0,0.46,0.25,0.68,0.75,0.68
		c1.32,0,3.36-0.19,6.13-0.58C447.71,25.39,448,25.25,448,25.06z"/>
</g>
<line class="st1" x1="173.14" y1="53.4" x2="457.25" y2="53.4"/>
<g>
	<g>
		<path class="st0" d="M185.95,80.48c0,0.13-0.03,0.31-0.1,0.55c-0.08,0.3-0.12,0.48-0.14,0.55c-0.03,0.29-0.09,0.7-0.18,1.25
			c-0.04,0.14-0.15,0.21-0.33,0.21c-0.09,0-0.25-0.02-0.49-0.05c-1.05-0.14-2.68-0.21-4.88-0.21c-0.62,0-1.56,0.02-2.82,0.05
			c-1.25,0.03-2.19,0.05-2.82,0.05c-0.28,0-0.42-0.12-0.42-0.35c0-0.89,0.05-2.23,0.16-4.01c0.11-1.78,0.16-3.12,0.16-4.01
			c0-0.91-0.05-2.6-0.15-5.07c-0.02-0.64-0.06-1.59-0.14-2.85l-0.01-0.17c-0.01-0.18,0.1-0.27,0.33-0.27c0.6,0,1.49,0.02,2.69,0.05
			c1.19,0.03,2.09,0.05,2.69,0.05c0.57,0,1.43-0.02,2.57-0.05c1.14-0.03,1.99-0.05,2.57-0.05c0.4,0,0.62,0.12,0.65,0.35
			c0.18,1.05,0.27,1.7,0.27,1.96c0,0.18-0.09,0.27-0.28,0.27c-0.73,0-1.82-0.04-3.3-0.11c-1.47-0.08-2.58-0.11-3.32-0.11
			c-0.7,0-1.14,0.09-1.33,0.26c-0.18,0.17-0.28,0.61-0.28,1.3v1.78c0,0.49,0.01,0.77,0.04,0.85c0.08,0.25,0.3,0.37,0.67,0.37
			c0.1,0,0.25,0,0.44-0.01c0.2,0,0.34,0,0.44,0c1.67,0,3.17-0.03,4.51-0.08c0.52-0.02,1.13-0.06,1.84-0.12
			c0.18-0.02,0.27,0.06,0.27,0.21c0,0.25-0.03,0.64-0.1,1.17c-0.06,0.52-0.1,0.92-0.1,1.18c0,0.14-0.13,0.21-0.38,0.21
			c-0.1,0-0.48-0.03-1.14-0.08c-0.48-0.05-1.55-0.07-3.23-0.07c-1.41,0-2.3,0.02-2.68,0.05c-0.34,0.02-0.54,0.19-0.59,0.5
			c0.01-0.06,0.01,0.25,0.01,0.92v1.76c0,0.83,0.14,1.34,0.41,1.55c0.21,0.17,0.75,0.25,1.6,0.25l1.41-0.01
			c0.6,0,2.27-0.1,5.03-0.29l0.19-0.01C185.87,80.16,185.95,80.26,185.95,80.48z"/>
		<path class="st0" d="M191.24,68.61c0,0.98-0.58,1.47-1.75,1.47c-1.19,0-1.78-0.49-1.78-1.47c0-0.44,0.18-0.8,0.55-1.09
			c0.34-0.27,0.75-0.41,1.23-0.41s0.89,0.14,1.24,0.42C191.07,67.82,191.24,68.18,191.24,68.61z M191.15,71.85
			c0,0.61-0.04,1.54-0.12,2.77c-0.08,1.24-0.12,2.16-0.12,2.78c0,0.58,0.01,1.45,0.04,2.61c0.03,1.16,0.04,2.02,0.04,2.59
			c0,0.17-0.08,0.25-0.23,0.25h-2.5c-0.18,0-0.27-0.16-0.27-0.49c0-0.55,0.01-1.37,0.04-2.47c0.03-1.1,0.04-1.93,0.04-2.49
			c0-0.62-0.05-1.55-0.15-2.79c-0.1-1.24-0.15-2.17-0.15-2.79c0-0.14,0.09-0.2,0.27-0.2c0.15,0,0.39,0.02,0.71,0.06
			c0.32,0.04,0.56,0.06,0.72,0.06c0.16,0,0.4-0.02,0.72-0.06c0.32-0.04,0.56-0.06,0.72-0.06C191.08,71.62,191.15,71.69,191.15,71.85
			z"/>
		<path class="st0" d="M200.82,80.68c0,0.17-0.02,0.41-0.05,0.71c-0.04,0.37-0.07,0.62-0.08,0.73c-0.01,0.14-0.02,0.23-0.04,0.26
			c-0.03,0.06-0.12,0.11-0.24,0.17c-0.7,0.31-1.8,0.46-3.3,0.46c-2,0-3-0.84-3-2.53c0-0.68,0.02-1.69,0.05-3.05
			c0.03-1.35,0.05-2.37,0.05-3.05c0-0.33-0.18-0.5-0.52-0.52c-0.32,0-0.63,0-0.93-0.01c-0.18-0.04-0.27-0.37-0.27-0.98
			c0-0.23,0.02-0.47,0.05-0.73c0.03-0.19,0.16-0.31,0.41-0.35c0.21,0,0.42,0,0.63-0.01c0.39-0.02,0.59-0.18,0.59-0.49
			c0-0.32-0.01-0.8-0.03-1.45c-0.02-0.65-0.03-1.14-0.03-1.47c0-0.58,0.12-0.87,0.36-0.87c0.08,0,0.88,0.12,2.41,0.37
			c0.2,0.02,0.29,0.11,0.29,0.26c0,0.35-0.03,0.87-0.08,1.57c-0.06,0.7-0.08,1.22-0.08,1.57c0,0.23,0.12,0.35,0.35,0.35h3.07
			c0.15,0,0.22,0.05,0.22,0.14s-0.01,0.25-0.04,0.46c-0.03,0.21-0.04,0.37-0.04,0.47c0,0.12,0,0.3,0.01,0.55
			c0.01,0.25,0.01,0.43,0.01,0.55c0,0.15-0.12,0.23-0.36,0.23c-0.34,0-0.86-0.02-1.55-0.07c-0.69-0.04-1.21-0.07-1.55-0.07
			c-0.07,0-0.12,0.23-0.15,0.68c-0.04,0.56-0.06,1.35-0.06,2.37v1.78c0,0.68,0.07,1.16,0.2,1.43c0.2,0.41,0.63,0.62,1.27,0.62
			c0.26,0,0.65-0.05,1.16-0.16c0.51-0.11,0.89-0.16,1.14-0.16C200.77,80.47,200.82,80.54,200.82,80.68z"/>
		<path class="st0" d="M213.82,82.46c0,0.3-0.09,0.44-0.27,0.44c-0.26,0-0.67-0.01-1.2-0.01c-0.54-0.01-0.94-0.01-1.2-0.01
			c-0.21,0-0.32-0.13-0.32-0.39c0-0.38,0.01-0.96,0.04-1.73c0.03-0.77,0.04-1.35,0.04-1.74c0-0.37-0.01-0.92-0.04-1.66
			c-0.03-0.74-0.04-1.3-0.04-1.68c0-1.43-0.73-2.15-2.18-2.15c-0.47,0-1.08,0.22-1.84,0.66c-0.81,0.47-1.22,0.9-1.22,1.29v7.08
			c0,0.23-0.09,0.35-0.27,0.35c-0.26,0-0.66-0.01-1.19-0.01c-0.53-0.01-0.93-0.01-1.19-0.01c-0.2,0-0.29-0.11-0.29-0.32v-5.76
			c0-0.94-0.06-2.93-0.17-5.99c-0.02-0.95-0.09-2.35-0.22-4.2c-0.02-0.1-0.03-0.16-0.03-0.19c0-0.13,0.05-0.22,0.15-0.25
			c0.15-0.05,0.63-0.07,1.45-0.07c0.18,0,0.45-0.03,0.81-0.09c0.36-0.06,0.62-0.09,0.78-0.09c0.11,0,0.17,0.08,0.17,0.23
			c0,0.75-0.03,1.87-0.1,3.37c-0.06,1.5-0.1,2.62-0.1,3.37c0,0.18,0.03,0.28,0.1,0.29c0.44-0.34,1-0.76,1.69-1.24
			c0.84-0.48,1.72-0.73,2.65-0.73c1.6,0,2.71,0.45,3.32,1.34c0.44,0.65,0.65,1.68,0.65,3.1c0,0.25-0.01,0.63-0.02,1.14
			s-0.02,0.89-0.02,1.14c0,0.51,0.01,1.27,0.03,2.28C213.82,81.2,213.82,81.96,213.82,82.46z"/>
		<path class="st0" d="M227.13,76.47c0,0.59-0.27,0.98-0.82,1.18c-0.37,0.13-3.01,0.36-7.92,0.7c0.11,0.7,0.52,1.3,1.24,1.79
			c0.68,0.47,1.42,0.7,2.2,0.7c1.35,0,2.59-0.41,3.71-1.22c0.14-0.1,0.27-0.21,0.41-0.31c0.07,0,0.11,0.01,0.13,0.02
			c0.02,0.02,0.18,0.29,0.48,0.83c0.3,0.54,0.45,0.82,0.45,0.86c0,0.05-0.07,0.14-0.2,0.27c-1.25,1.24-2.86,1.86-4.83,1.86
			c-1.98,0-3.56-0.55-4.74-1.65c-1.18-1.1-1.77-2.57-1.77-4.41c0-1.64,0.56-3.06,1.69-4.28c1.19-1.26,2.64-1.9,4.37-1.9
			c1.6,0,2.94,0.55,4.02,1.65C226.6,73.65,227.13,74.95,227.13,76.47z M224.08,75.74c0-0.66-0.28-1.24-0.84-1.75
			c-0.56-0.51-1.19-0.76-1.89-0.76c-0.79,0-1.48,0.29-2.09,0.88c-0.61,0.59-0.92,1.25-0.92,1.98c0,0.17,0.15,0.25,0.46,0.25
			c1.26,0,2.77-0.12,4.53-0.36C223.83,75.92,224.08,75.84,224.08,75.74z"/>
		<path class="st0" d="M236.24,71.68c0,0.87-0.06,1.67-0.19,2.38c-0.03,0.18-0.11,0.27-0.26,0.27c-0.18,0-0.45-0.02-0.81-0.05
			c-0.36-0.04-0.64-0.05-0.83-0.05c-1.07,0-1.76,0.28-2.06,0.85c-0.18,0.34-0.27,1.05-0.27,2.13v1.31c0,0.45,0.02,1.12,0.06,2.03
			c0.04,0.91,0.06,1.58,0.06,2.03c0,0.21-0.1,0.32-0.29,0.32c-0.26,0-0.67-0.01-1.2-0.01c-0.54-0.01-0.94-0.01-1.2-0.01
			c-0.2,0-0.29-0.1-0.29-0.3c0-0.64,0.01-1.61,0.03-2.91c0.02-1.3,0.03-2.27,0.03-2.92c0-1.96-0.2-3.54-0.59-4.73
			c-0.02-0.06-0.03-0.11-0.03-0.14c0-0.1,0.06-0.16,0.17-0.2c0.32-0.03,0.76-0.08,1.33-0.14c0.92-0.16,1.35-0.24,1.28-0.24
			c0.14,0,0.23,0.23,0.27,0.7c0.04,0.47,0.12,0.7,0.23,0.7c0.02,0,0.04-0.01,0.06-0.02c0.35-0.21,0.7-0.41,1.05-0.62
			c0.38-0.21,0.78-0.37,1.18-0.48c0.33-0.1,0.76-0.14,1.28-0.14C235.91,71.43,236.24,71.51,236.24,71.68z"/>
		<path class="st0" d="M256.13,68.4c0,0.21-0.08,0.31-0.23,0.31c-0.24,0-1.75-0.05-4.53-0.14c-0.08,2.42-0.12,4.37-0.12,5.83
			c0,0.91,0.04,2.29,0.11,4.11c0.07,1.83,0.11,3.2,0.11,4.11c0,0.17-0.12,0.25-0.37,0.25c-0.15,0-0.39-0.01-0.7-0.04
			c-0.32-0.02-0.55-0.04-0.72-0.04c-0.15,0-0.39,0.01-0.7,0.04c-0.32,0.02-0.55,0.04-0.7,0.04c-0.21,0-0.32-0.1-0.32-0.3
			c0-0.91,0.04-2.27,0.12-4.08c0.08-1.82,0.12-3.18,0.12-4.1c0-1.41-0.05-3.36-0.14-5.83c-2.2,0.13-3.81,0.19-4.84,0.19
			c-0.1,0-0.15-0.04-0.15-0.12c0-0.14,0.04-0.35,0.12-0.62c0.09-0.35,0.15-0.56,0.17-0.62c0.02-0.28,0.08-0.66,0.18-1.16
			c0.04-0.1,0.12-0.16,0.22-0.16l0.15,0.01c3.02,0.17,5.01,0.25,5.98,0.25c0.85,0,2.25-0.06,4.19-0.18
			c1.32-0.08,1.87-0.12,1.65-0.12c0.22,0,0.35,0.07,0.37,0.21c-0.02-0.09-0.03,0.3-0.03,1.16c0,0.1,0.01,0.26,0.04,0.48
			S256.13,68.29,256.13,68.4z"/>
		<path class="st0" d="M274.84,74.33c0,1.49-0.09,2.43-0.27,2.81c-0.24,0.52-0.87,1.57-1.89,3.14c-1.11,1.69-1.78,2.57-2.01,2.62
			c-0.07,0.02-0.41,0.02-1.02,0.02c-0.42,0-0.66-0.01-0.73-0.02c-0.27-0.06-1.28-1.43-3.05-4.1c-0.49,0.75-0.98,1.5-1.47,2.25
			c-0.8,1.18-1.31,1.79-1.54,1.85c-0.07,0.02-0.35,0.02-0.85,0.02c-0.5,0-0.79-0.01-0.86-0.02c-0.26-0.06-0.93-0.92-2.01-2.6
			c-1.02-1.58-1.63-2.63-1.84-3.16c-0.2-0.48-0.29-1.41-0.29-2.81c0-1.17,0.04-1.97,0.13-2.4c0.04-0.17,0.15-0.26,0.32-0.26
			c0.26,0,0.64,0.01,1.15,0.02c0.51,0.02,0.9,0.02,1.15,0.02c0.16,0,0.24,0.12,0.24,0.37c0,0.17-0.01,0.44-0.03,0.79
			c-0.02,0.35-0.03,0.62-0.03,0.79c0,1.38,0.04,2.36,0.13,2.93c0.08,0.5,0.75,1.55,2.01,3.15c0.15,0.19,0.24,0.29,0.27,0.29
			s0.1-0.09,0.23-0.26c1.11-1.5,1.74-2.53,1.89-3.08c0.1-0.38,0.15-1.24,0.15-2.56c0-0.27-0.02-0.67-0.05-1.2
			c-0.03-0.53-0.05-0.93-0.05-1.19c0-0.17,0.08-0.26,0.23-0.26h2.45c0.14,0,0.2,0.1,0.2,0.31c0,0.25-0.01,0.64-0.04,1.15
			c-0.03,0.51-0.04,0.9-0.04,1.15c0,1.41,0.03,2.22,0.08,2.44c0.05,0.22,0.45,0.84,1.2,1.87c0.75,1.03,1.18,1.54,1.29,1.54
			c0.03,0,0.1-0.1,0.23-0.29c1.08-1.53,1.67-2.56,1.75-3.08c0.08-0.43,0.12-1.16,0.12-2.18c0-0.3-0.03-0.74-0.08-1.31
			s-0.08-0.98-0.08-1.22c0-0.12,0.09-0.18,0.26-0.18c0.26,0,0.64-0.01,1.14-0.02c0.5-0.02,0.88-0.02,1.14-0.02
			c0.19,0,0.3,0.08,0.35,0.24C274.8,72.19,274.84,73.01,274.84,74.33z"/>
		<path class="st0" d="M288.37,77.07c0,1.66-0.58,3.08-1.75,4.26c-1.19,1.22-2.68,1.82-4.44,1.82c-1.78,0-3.26-0.6-4.45-1.81
			c-1.17-1.17-1.75-2.58-1.75-4.24c0-1.66,0.58-3.08,1.75-4.25c1.2-1.19,2.69-1.79,4.45-1.79c1.76,0,3.23,0.6,4.43,1.79
			C287.78,74.01,288.37,75.41,288.37,77.07z M285.67,77.09c0-0.97-0.32-1.8-0.96-2.48c-0.67-0.72-1.51-1.09-2.54-1.09
			c-1.02,0-1.87,0.36-2.55,1.07c-0.64,0.69-0.96,1.52-0.96,2.49c0,0.95,0.32,1.78,0.97,2.48c0.68,0.74,1.53,1.11,2.53,1.11
			c1.02,0,1.86-0.37,2.54-1.11C285.35,78.87,285.67,78.05,285.67,77.09z"/>
		<path class="st0" d="M308.33,77.07c0,1.66-0.58,3.08-1.75,4.26c-1.19,1.22-2.68,1.82-4.44,1.82c-1.78,0-3.26-0.6-4.45-1.81
			c-1.17-1.17-1.75-2.58-1.75-4.24c0-1.66,0.58-3.08,1.75-4.25c1.2-1.19,2.69-1.79,4.45-1.79c1.76,0,3.24,0.6,4.43,1.79
			C307.74,74.01,308.33,75.41,308.33,77.07z M305.63,77.09c0-0.97-0.32-1.8-0.96-2.48c-0.67-0.72-1.51-1.09-2.54-1.09
			c-1.02,0-1.87,0.36-2.55,1.07c-0.64,0.69-0.96,1.52-0.96,2.49c0,0.95,0.32,1.78,0.97,2.48c0.68,0.74,1.53,1.11,2.53,1.11
			c1.02,0,1.86-0.37,2.54-1.11C305.31,78.87,305.63,78.05,305.63,77.09z"/>
		<path class="st0" d="M317.45,71.68c0,0.87-0.06,1.67-0.19,2.38c-0.03,0.18-0.11,0.27-0.26,0.27c-0.18,0-0.45-0.02-0.81-0.05
			c-0.36-0.04-0.64-0.05-0.83-0.05c-1.08,0-1.76,0.28-2.06,0.85c-0.18,0.34-0.27,1.05-0.27,2.13v1.31c0,0.45,0.02,1.12,0.06,2.03
			c0.04,0.91,0.06,1.58,0.06,2.03c0,0.21-0.1,0.32-0.29,0.32c-0.27,0-0.67-0.01-1.2-0.01c-0.54-0.01-0.94-0.01-1.2-0.01
			c-0.2,0-0.29-0.1-0.29-0.3c0-0.64,0.01-1.61,0.03-2.91c0.02-1.3,0.03-2.27,0.03-2.92c0-1.96-0.2-3.54-0.59-4.73
			c-0.02-0.06-0.03-0.11-0.03-0.14c0-0.1,0.06-0.16,0.17-0.2c0.32-0.03,0.76-0.08,1.33-0.14c0.92-0.16,1.35-0.24,1.28-0.24
			c0.14,0,0.23,0.23,0.27,0.7c0.04,0.47,0.12,0.7,0.23,0.7c0.02,0,0.04-0.01,0.06-0.02c0.35-0.21,0.7-0.41,1.05-0.62
			c0.38-0.21,0.78-0.37,1.18-0.48c0.33-0.1,0.76-0.14,1.28-0.14C317.12,71.43,317.45,71.51,317.45,71.68z"/>
		<path class="st0" d="M337.75,68.59c0,0.15-0.09,0.23-0.27,0.23c-0.66,0-1.76-0.04-3.28-0.11c-1.42-0.06-2.51-0.09-3.28-0.07
			l-0.93,0.01c-0.6,0.01-0.91,0.02-0.95,0.04c-0.17,0.06-0.26,0.31-0.26,0.75v2.87c0,0.54,0.12,0.81,0.37,0.81
			c0.83,0,2.08-0.04,3.74-0.11c1.67-0.07,2.92-0.11,3.75-0.11c0.18,0,0.27,0.06,0.27,0.19c0,0.13-0.01,0.34-0.03,0.6
			c-0.02,0.27-0.03,0.47-0.03,0.6c0,0.14,0.01,0.36,0.03,0.65c0.02,0.29,0.02,0.51,0.02,0.65c0,0.1-0.09,0.14-0.27,0.14
			c-0.59,0-1.48-0.02-2.68-0.05c-1.2-0.03-2.1-0.05-2.7-0.05c-1.1,0-1.72,0.01-1.87,0.02c-0.38,0.04-0.58,0.19-0.58,0.44
			c0,0.71,0.02,1.79,0.06,3.22c0.04,1.43,0.06,2.5,0.06,3.22c0,0.24-0.1,0.36-0.31,0.36c-0.17,0-0.42-0.02-0.76-0.05
			c-0.34-0.04-0.6-0.05-0.77-0.05c-0.15,0-0.37,0.01-0.67,0.04c-0.3,0.02-0.52,0.04-0.67,0.04c-0.21,0-0.32-0.09-0.32-0.26
			c0-0.88,0.04-2.21,0.12-3.98c0.08-1.77,0.12-3.1,0.12-3.98c0-0.82-0.09-3.48-0.27-7.99V66.5c-0.01-0.17,0.1-0.26,0.32-0.29
			c0.07,0,0.61,0.01,1.63,0.04c1.34,0.02,2.58,0.03,3.72,0.01c1.54-0.02,3.51-0.1,5.9-0.24c0.32-0.02,0.51,0.11,0.55,0.39
			c-0.01,0.21,0.01,0.54,0.05,0.98C337.69,68.01,337.75,68.41,337.75,68.59z"/>
		<path class="st0" d="M350.99,77.07c0,1.66-0.58,3.08-1.75,4.26c-1.19,1.22-2.68,1.82-4.44,1.82c-1.78,0-3.26-0.6-4.45-1.81
			c-1.17-1.17-1.75-2.58-1.75-4.24c0-1.66,0.58-3.08,1.75-4.25c1.2-1.19,2.69-1.79,4.45-1.79c1.76,0,3.23,0.6,4.43,1.79
			C350.41,74.01,350.99,75.41,350.99,77.07z M348.29,77.09c0-0.97-0.32-1.8-0.96-2.48c-0.67-0.72-1.51-1.09-2.54-1.09
			c-1.02,0-1.87,0.36-2.55,1.07c-0.64,0.69-0.96,1.52-0.96,2.49c0,0.95,0.32,1.78,0.97,2.48c0.68,0.74,1.53,1.11,2.53,1.11
			c1.02,0,1.86-0.37,2.54-1.11C347.97,78.87,348.29,78.05,348.29,77.09z"/>
		<path class="st0" d="M364.65,72.06c0,0.58-0.03,1.46-0.08,2.63c-0.05,1.17-0.08,2.05-0.08,2.64c0,0.58,0.02,1.45,0.06,2.61
			c0.04,1.16,0.06,2.03,0.06,2.61c0,0.16-0.08,0.26-0.24,0.31c-0.07,0.02-0.93,0.02-2.6,0.02c-0.1,0-0.16-0.3-0.19-0.89
			c-0.02-0.6-0.07-0.89-0.15-0.89c-0.04,0-0.11,0.04-0.19,0.11c-1.43,1.15-2.83,1.73-4.23,1.73c-1.89,0-3.13-0.64-3.74-1.91
			c-0.38-0.79-0.56-2.2-0.56-4.25c0-1.84,0.16-3.41,0.47-4.69c0.08-0.31,0.22-0.46,0.42-0.46c0.25,0,0.62,0,1.11,0.01
			c0.49,0.01,0.87,0.01,1.11,0.01c0.17,0,0.26,0.09,0.26,0.26c0,0.31-0.06,0.83-0.17,1.55c-0.12,0.77-0.18,1.32-0.19,1.63
			c-0.03,0.48-0.04,1-0.04,1.57c0,1.39,0.11,2.33,0.32,2.8c0.37,0.86,1.18,1.29,2.45,1.29c0.54,0,1.17-0.25,1.91-0.74
			c0.78-0.52,1.18-1.01,1.2-1.49c0.04-0.6,0.06-2.7,0.06-6.3c0-0.39,0.17-0.58,0.52-0.58h2.11
			C364.53,71.64,364.65,71.78,364.65,72.06z"/>
		<path class="st0" d="M374.59,71.68c0,0.87-0.06,1.67-0.19,2.38c-0.03,0.18-0.11,0.27-0.26,0.27c-0.18,0-0.45-0.02-0.81-0.05
			c-0.36-0.04-0.64-0.05-0.83-0.05c-1.08,0-1.76,0.28-2.06,0.85c-0.18,0.34-0.27,1.05-0.27,2.13v1.31c0,0.45,0.02,1.12,0.06,2.03
			c0.04,0.91,0.06,1.58,0.06,2.03c0,0.21-0.1,0.32-0.29,0.32c-0.27,0-0.67-0.01-1.2-0.01c-0.54-0.01-0.94-0.01-1.2-0.01
			c-0.2,0-0.29-0.1-0.29-0.3c0-0.64,0.01-1.61,0.03-2.91c0.02-1.3,0.03-2.27,0.03-2.92c0-1.96-0.2-3.54-0.59-4.73
			c-0.02-0.06-0.03-0.11-0.03-0.14c0-0.1,0.06-0.16,0.17-0.2c0.32-0.03,0.76-0.08,1.33-0.14c0.92-0.16,1.35-0.24,1.28-0.24
			c0.14,0,0.23,0.23,0.27,0.7c0.04,0.47,0.12,0.7,0.23,0.7c0.02,0,0.04-0.01,0.06-0.02c0.35-0.21,0.7-0.41,1.05-0.62
			c0.38-0.21,0.78-0.37,1.18-0.48c0.33-0.1,0.76-0.14,1.28-0.14C374.26,71.43,374.59,71.51,374.59,71.68z"/>
		<path class="st0" d="M403.87,72.25c0,0.06-0.85,1.76-2.56,5.1c-0.57,1.16-1.45,2.89-2.62,5.2c-0.11,0.21-0.23,0.32-0.35,0.32h-2.3
			c-0.16,0-0.29-0.11-0.4-0.32c-0.63-1.38-1.54-3.56-2.73-6.53c-0.59,1.46-1.51,3.64-2.75,6.53c-0.09,0.21-0.22,0.32-0.38,0.32
			h-2.29c-0.13,0-0.25-0.11-0.36-0.32c-0.59-1.15-1.47-2.89-2.65-5.2c-1.63-3.16-2.45-4.86-2.45-5.1c0-0.65,0.02-1.63,0.06-2.95
			c0.04-1.31,0.06-2.29,0.06-2.94c0-0.14,0.11-0.21,0.32-0.21c0.15,0,0.39,0.01,0.7,0.04s0.54,0.04,0.7,0.04
			c0.15,0,0.36-0.01,0.65-0.02c0.29-0.02,0.51-0.02,0.65-0.02c0.18,0,0.27,0.06,0.27,0.18c0,0.64-0.04,1.62-0.12,2.92
			c-0.08,1.3-0.12,2.27-0.12,2.92c0,0.41,0.86,2.24,2.59,5.51c0.57,1.08,0.88,1.62,0.93,1.62c0.02-0.01,0.04-0.04,0.06-0.08
			c0.1-0.18,0.32-0.69,0.65-1.53c0.61-1.55,1.25-3.31,1.89-5.28c0.03-0.2,0.04-0.83,0.04-1.88c0-0.47-0.01-1.17-0.04-2.1
			s-0.04-1.64-0.04-2.1c0-0.12,0.09-0.18,0.27-0.18c0.16,0,0.41,0.01,0.73,0.04c0.32,0.02,0.57,0.04,0.74,0.04
			c0.15,0,0.36-0.01,0.65-0.04c0.29-0.02,0.51-0.04,0.65-0.04c0.2,0,0.29,0.06,0.29,0.19c0,0.5-0.02,1.25-0.05,2.26
			s-0.05,1.76-0.05,2.26c0,0.82,0,1.32,0.01,1.49c0.03,0.4,0.67,2.14,1.93,5.23c0.14,0.35,0.36,0.85,0.67,1.5
			c0.01,0.03,0.03,0.06,0.05,0.08c0.05,0,0.35-0.53,0.91-1.59c1.68-3.2,2.52-5.01,2.52-5.43c0-0.65-0.04-1.63-0.12-2.92
			c-0.08-1.3-0.12-2.27-0.12-2.91c0-0.12,0.03-0.18,0.1-0.18c0.17,0,0.42,0.01,0.76,0.04s0.59,0.04,0.76,0.04
			c0.15,0,0.39-0.01,0.7-0.04c0.32-0.02,0.55-0.04,0.72-0.04c0.18,0,0.28,0.05,0.31,0.14c0-0.01,0,0.1,0,0.33
			c0,0.63,0.02,1.57,0.06,2.81C403.85,70.68,403.87,71.62,403.87,72.25z"/>
		<path class="st0" d="M417.12,82.46c0,0.3-0.09,0.44-0.27,0.44c-0.26,0-0.67-0.01-1.2-0.01c-0.54-0.01-0.94-0.01-1.2-0.01
			c-0.21,0-0.32-0.13-0.32-0.39c0-0.38,0.01-0.96,0.04-1.73c0.03-0.77,0.04-1.35,0.04-1.74c0-0.37-0.01-0.92-0.04-1.66
			c-0.03-0.74-0.04-1.3-0.04-1.68c0-1.43-0.73-2.15-2.18-2.15c-0.47,0-1.08,0.22-1.84,0.66c-0.81,0.47-1.22,0.9-1.22,1.29v7.08
			c0,0.23-0.09,0.35-0.27,0.35c-0.26,0-0.66-0.01-1.19-0.01c-0.53-0.01-0.93-0.01-1.19-0.01c-0.2,0-0.29-0.11-0.29-0.32v-5.76
			c0-0.94-0.06-2.93-0.17-5.99c-0.02-0.95-0.09-2.35-0.22-4.2c-0.02-0.1-0.03-0.16-0.03-0.19c0-0.13,0.05-0.22,0.15-0.25
			c0.15-0.05,0.63-0.07,1.45-0.07c0.18,0,0.45-0.03,0.81-0.09c0.36-0.06,0.62-0.09,0.78-0.09c0.11,0,0.17,0.08,0.17,0.23
			c0,0.75-0.03,1.87-0.1,3.37c-0.06,1.5-0.1,2.62-0.1,3.37c0,0.18,0.03,0.28,0.1,0.29c0.43-0.34,1-0.76,1.69-1.24
			c0.84-0.48,1.72-0.73,2.65-0.73c1.6,0,2.71,0.45,3.32,1.34c0.44,0.65,0.65,1.68,0.65,3.1c0,0.25-0.01,0.63-0.02,1.14
			s-0.02,0.89-0.02,1.14c0,0.51,0.01,1.27,0.03,2.28C417.11,81.2,417.12,81.96,417.12,82.46z"/>
		<path class="st0" d="M430.42,76.47c0,0.59-0.27,0.98-0.82,1.18c-0.37,0.13-3.01,0.36-7.92,0.7c0.11,0.7,0.52,1.3,1.24,1.79
			c0.68,0.47,1.42,0.7,2.2,0.7c1.35,0,2.59-0.41,3.71-1.22c0.14-0.1,0.27-0.21,0.41-0.31c0.07,0,0.11,0.01,0.13,0.02
			c0.02,0.02,0.18,0.29,0.48,0.83c0.3,0.54,0.45,0.82,0.45,0.86c0,0.05-0.07,0.14-0.2,0.27c-1.25,1.24-2.86,1.86-4.83,1.86
			c-1.98,0-3.56-0.55-4.74-1.65c-1.18-1.1-1.77-2.57-1.77-4.41c0-1.64,0.56-3.06,1.69-4.28c1.19-1.26,2.64-1.9,4.36-1.9
			c1.6,0,2.94,0.55,4.02,1.65C429.89,73.65,430.42,74.95,430.42,76.47z M427.37,75.74c0-0.66-0.28-1.24-0.84-1.75
			s-1.19-0.76-1.89-0.76c-0.79,0-1.48,0.29-2.09,0.88c-0.61,0.59-0.91,1.25-0.91,1.98c0,0.17,0.15,0.25,0.46,0.25
			c1.26,0,2.77-0.12,4.53-0.36C427.12,75.92,427.37,75.84,427.37,75.74z"/>
		<path class="st0" d="M443.05,76.47c0,0.59-0.27,0.98-0.82,1.18c-0.37,0.13-3.01,0.36-7.92,0.7c0.11,0.7,0.52,1.3,1.24,1.79
			c0.68,0.47,1.42,0.7,2.2,0.7c1.35,0,2.59-0.41,3.71-1.22c0.14-0.1,0.27-0.21,0.41-0.31c0.07,0,0.11,0.01,0.13,0.02
			c0.02,0.02,0.18,0.29,0.48,0.83c0.3,0.54,0.45,0.82,0.45,0.86c0,0.05-0.07,0.14-0.2,0.27c-1.25,1.24-2.86,1.86-4.83,1.86
			c-1.98,0-3.56-0.55-4.74-1.65c-1.18-1.1-1.77-2.57-1.77-4.41c0-1.64,0.56-3.06,1.69-4.28c1.19-1.26,2.64-1.9,4.36-1.9
			c1.6,0,2.94,0.55,4.02,1.65C442.53,73.65,443.05,74.95,443.05,76.47z M440.01,75.74c0-0.66-0.28-1.24-0.84-1.75
			s-1.19-0.76-1.89-0.76c-0.79,0-1.48,0.29-2.09,0.88c-0.61,0.59-0.91,1.25-0.91,1.98c0,0.17,0.15,0.25,0.46,0.25
			c1.26,0,2.77-0.12,4.53-0.36C439.76,75.92,440.01,75.84,440.01,75.74z"/>
		<path class="st0" d="M448.08,66.34l-0.01,0.15c-0.19,2.96-0.28,5.5-0.28,7.62c0,0.95,0.02,2.36,0.05,4.25
			c0.03,1.89,0.05,3.3,0.05,4.24c0,0.18-0.07,0.27-0.2,0.27h-2.45c-0.15,0-0.23-0.09-0.23-0.27c0-0.94,0.01-2.35,0.03-4.24
			c0.02-1.89,0.03-3.31,0.03-4.25c0-0.86-0.04-2.15-0.13-3.87c-0.09-1.72-0.13-3.01-0.13-3.86c0-0.16,0.09-0.24,0.27-0.24
			c0.15,0,0.38,0.01,0.69,0.04s0.54,0.04,0.69,0.04c0.16,0,0.4-0.01,0.72-0.04c0.31-0.02,0.55-0.04,0.7-0.04
			C448.02,66.15,448.09,66.21,448.08,66.34z"/>
		<path class="st0" d="M456.61,79.2c0,1.18-0.51,2.13-1.52,2.85c-0.92,0.65-2.04,0.98-3.37,0.98c-0.51,0-0.8-0.01-0.87-0.04
			c-0.15-0.06-0.22-0.26-0.22-0.59c0-0.17-0.02-0.44-0.07-0.79c-0.05-0.35-0.07-0.61-0.07-0.77c0-0.1,0.08-0.17,0.23-0.2
			c0.11-0.02,0.27-0.02,0.47,0c0.26,0.02,0.39,0.04,0.38,0.04c1.61,0,2.42-0.46,2.42-1.38c0-0.44-0.35-0.84-1.06-1.2
			c-1.15-0.59-1.81-0.95-1.98-1.09c-0.71-0.56-1.06-1.3-1.06-2.22c0-1.19,0.48-2.12,1.45-2.79c0.87-0.6,1.97-0.89,3.3-0.89
			c0.12,0,0.21,0.05,0.26,0.15c0.06,0.1,0.16,0.43,0.32,0.97c0.16,0.54,0.24,0.87,0.24,0.98c0,0.09-0.08,0.14-0.24,0.17
			c-0.55,0.07-1.1,0.14-1.65,0.2c-0.66,0.17-0.99,0.5-0.99,1c0,0.36,0.35,0.72,1.04,1.09c1.02,0.53,1.67,0.92,1.95,1.16
			C456.26,77.44,456.61,78.23,456.61,79.2z"/>
	</g>
</g>
</svg>
