<?xml version="1.0" ?><svg id="Layer_1" style="enable-background:new 0 0 100 100;" version="1.1" viewBox="0 0 100 100" xml:space="preserve" xmlns="http://www.w3.org/2000/svg" xmlns:xlink="http://www.w3.org/1999/xlink"><g><path d="M50,0C22.4,0,0,22.4,0,50s22.4,50,50,50s50-22.4,50-50S77.6,0,50,0z M75.5,59.2c1.4,2.4,2.2,5.1,2.2,8   c0,8.7-7.1,15.8-15.8,15.8c-4.7,0-9-2.1-11.9-5.4c-2.9,3.3-7.1,5.4-11.9,5.4c-8.7,0-15.8-7.1-15.8-15.8c0-2.9,0.8-5.7,2.2-8   c-5.6-2.4-9.5-8-9.5-14.5c0-8.7,7.1-15.8,15.8-15.8c1.2,0,2.3,0.1,3.5,0.4C35,21.3,41.8,15,50,15s15,6.3,15.7,14.3   c1.1-0.2,2.3-0.4,3.5-0.4C77.9,28.9,85,36,85,44.7C85,51.2,81.1,56.8,75.5,59.2z"/></g></svg>