<?xml version="1.0" ?><svg baseProfile="tiny" id="Layer_1" version="1.2" viewBox="0 0 100 100" xml:space="preserve" xmlns="http://www.w3.org/2000/svg" xmlns:xlink="http://www.w3.org/1999/xlink"><g><path d="M50,0C22.4,0,0,22.4,0,50s22.4,50,50,50s50-22.4,50-50S77.6,0,50,0z M85,59.4l-0.3,0.5l-7.8-4.5l-8.8,15.2l7.8,4.5   l-0.3,0.5L59.4,85h-0.6v-9H41.2v9h-0.6l-16.2-9.4l-0.3-0.5l7.8-4.5l-8.8-15.2l-7.8,4.5L15,59.4V40.6l0.3-0.5l7.8,4.5l8.8-15.2   l-7.8-4.5l0.3-0.5L40.6,15h0.6v9h17.5v-9h0.6l16.2,9.4l0.3,0.5L68,29.4l8.8,15.2l7.8-4.5l0.3,0.5L85,59.4L85,59.4z"/></g></svg>