<?xml version="1.0" encoding="utf-8"?>
<!-- Generator: Adobe Illustrator 23.0.1, SVG Export Plug-In . SVG Version: 6.00 Build 0)  -->
<svg version="1.1" id="Layer_1" xmlns="http://www.w3.org/2000/svg" xmlns:xlink="http://www.w3.org/1999/xlink" x="0px" y="0px"
	 viewBox="0 0 580 110" style="enable-background:new 0 0 580 110;" xml:space="preserve">
<style type="text/css">
	.st0{fill:#FFFFFF;}
	.st1{fill:#FFFFFF;stroke:#34495E;stroke-width:1.7986;stroke-miterlimit:10;}
</style>
<path class="st0" d="M44.53,37.53l-0.17-18.54l-5.04-0.44L37.3,28.4c-3.63,0.76-7.02,2.14-10.01,4.02l-8.38-5.7l-6.5,5.92l7.05,7.93
	l0,0c-2.17,2.98-3.94,5.69-4.75,9.35L5.09,51.5v8.37l9.61,1.35c0.71,3.21,2,6.21,3.77,8.91l-5.28,8.56l5.17,4.71l9.11-4.57
	c2.98,1.84,6.32,3.18,9.92,3.92l2.42,8.91l5.21,0.01l-0.16-17.56c0,0-17.52-1.67-17.08-18.79C27.79,55.33,26.46,41.24,44.53,37.53z"
	/>
<path class="st0" d="M165.65,37.53l0.17-18.54l5.04-0.44l2.03,9.85c3.63,0.76,7.02,2.14,10.01,4.02l8.38-5.7l6.5,5.92l-7.05,7.93
	l0,0c2.17,2.98,3.94,5.69,4.75,9.35l9.61,1.58v8.37l-9.61,1.35c-0.71,3.21-2,6.21-3.77,8.91l5.28,8.56l-5.17,4.71l-9.11-4.57
	c-2.98,1.84-6.32,3.18-9.92,3.92l-2.42,8.91l-5.21,0.01l0.16-17.56c0,0,17.52-1.67,17.08-18.79
	C182.4,55.33,183.73,41.24,165.65,37.53z"/>
<g>
	<path class="st0" d="M135.25,73.87l-18.81-16.53l-9.66,8.44l19.36,17.02c-1.9,5.14-2.76,10.38,2.6,15.7
		c3.28,3.25,8.1,6.85,15.18,6.18l-11.5-9.81l16.77-15.5l11.73,10.41c1.17-6.35-2.78-10.76-6.06-13.63
		C149.19,71.19,141.78,71.42,135.25,73.87z"/>
	<path class="st0" d="M82.33,27.36c2.76-5.71,3.28-11.89-2.36-16.83C76.69,7.66,72.5,4.27,65.25,5.3l10.35,9.06l-17.46,15.3
		L47.1,19.85c-0.76,6.2,3.3,10.47,7.01,13.34c6.1,4.72,12.46,4.12,18.34,2.43L92.2,52.97l9.66-8.44L82.33,27.36z"/>
</g>
<path class="st0" d="M161.51,20.2l-11.19,10.08l-17.69-14.7L144.51,5.3c-7.25-1.03-12.28,2.44-15.56,5.31
	c-5.66,4.96-5.4,11.46-2.6,17.18L73.27,74.16c-6.52-2.42-13.57-2.87-19.21,2.07c-3.28,2.88-7.14,6.54-5.97,12.9l10.33-9.07
	l17.46,15.3l-11.2,9.68c7.08,0.67,11.94-2.89,15.23-6.14c5.39-5.34,4.7-10.92,2.77-16.07l53.84-47.04
	c5.86,1.66,11.85,2.42,17.92-2.28C158.16,30.62,162.27,26.4,161.51,20.2z M107.44,55.26c0,1.3-1.21,2.36-2.7,2.36
	c-1.48,0-2.7-1.06-2.7-2.36v0c0-1.3,1.21-2.36,2.7-2.36C106.23,52.9,107.44,53.96,107.44,55.26L107.44,55.26z"/>
<g>
	<path class="st0" d="M259.68,49.92c0,0.39-0.28,0.65-0.84,0.8c-0.68,0.17-2.77,0.26-6.28,0.26c-3.22,0-5.29-0.09-6.21-0.26
		c-0.77-0.15-1.25-0.63-1.45-1.44c-0.77-3.08-1.36-4.73-1.79-4.94c-0.36-0.15-3.38-0.23-9.05-0.23c-3.83,0-5.86,0.1-6.11,0.29
		c-0.38,0.34-0.81,1.49-1.28,3.43c-0.43,1.78-0.95,2.74-1.55,2.89c-0.77,0.17-3.33,0.26-7.7,0.26c-3.44,0-5.17-0.31-5.17-0.93
		c0-0.56,2.54-7.39,7.63-20.51c5.52-14.19,8.51-21.98,8.98-23.4c0.27-0.81,0.58-1.22,0.95-1.22c0.61,0,1.55,0.05,2.82,0.16
		c1.27,0.11,2.22,0.16,2.85,0.16c0.61,0,1.5-0.04,2.68-0.11c1.18-0.07,2.07-0.11,2.65-0.11c0.43,0,0.82,0.35,1.18,1.06
		c1.1,2.25,4.32,9.95,9.66,23.11C257,42.43,259.68,49.34,259.68,49.92z M235.74,20.68c-0.47,0.94-1.27,2.98-2.4,6.13
		c-1.22,3.34-1.82,5.3-1.82,5.87c0,0.38,0.67,0.6,2.03,0.64c0.7,0.04,1.85,0.06,3.44,0.06c1.49,0,2.31-0.17,2.46-0.51
		c0.04-0.11,0.07-0.26,0.07-0.45c0-0.71-0.52-2.65-1.55-5.84C236.96,23.51,236.21,21.54,235.74,20.68z"/>
	<path class="st0" d="M297.63,21.55c0,1.58-0.08,3.96-0.24,7.12c-0.16,3.17-0.24,5.54-0.24,7.12c0,1.54,0.06,3.85,0.17,6.93
		c0.11,3.08,0.17,5.38,0.17,6.9c0,0.58-0.28,0.94-0.84,1.09c-0.86,0.21-2.67,0.32-5.44,0.32c-2.45,0-4.16-0.06-5.13-0.19
		c-0.43-0.06-0.7-0.32-0.81-0.77c-0.07-0.64-0.13-1.28-0.2-1.93c-0.11-0.98-0.27-1.48-0.47-1.48c0.31,0-0.82,0.73-3.41,2.18
		c-2.59,1.46-4.94,2.18-7.06,2.18c-5.97,0-9.5-2.56-10.6-7.67c-0.5-2.38-0.74-5.82-0.74-10.33c0-4.88,0.42-8.73,1.25-11.55
		c0.25-0.88,0.71-1.32,1.38-1.32c1.04,0,2.61,0.01,4.73,0.03c2.12,0.02,3.69,0.03,4.73,0.03c0.7,0,1.05,0.28,1.05,0.83
		c0,0.15-0.02,0.37-0.07,0.67c-0.47,2.91-0.71,5.86-0.71,8.86c0,3.72,0.12,6.27,0.37,7.64c0.41,2.35,1.88,3.53,4.42,3.53
		c0.99,0,2.06-0.42,3.22-1.25c1.16-0.83,1.76-1.7,1.81-2.6c0.04-0.79,0.07-6.16,0.07-16.11c0-0.71,0.06-1.12,0.17-1.25
		c0.14-0.21,0.54-0.32,1.22-0.32c1.1,0,2.76,0.01,4.98,0.03c2.22,0.02,3.88,0.03,4.98,0.03c0.67,0,1.07,0.16,1.18,0.48
		C297.61,20.95,297.63,21.21,297.63,21.55z"/>
	<path class="st0" d="M325.79,41.32c0,0.64-0.09,1.62-0.25,2.92c-0.17,1.31-0.25,2.26-0.25,2.87c0,0.61-0.07,1-0.2,1.17
		c-0.13,0.17-0.51,0.42-1.11,0.74c-2.9,1.52-6.12,2.28-9.66,2.28c-6.51,0-9.76-2.36-9.76-7.09c0-1.41,0.06-3.54,0.17-6.37
		c0.11-2.83,0.17-4.96,0.17-6.37c0-0.94-0.57-1.41-1.72-1.41c-0.09,0-0.24,0-0.44,0c-0.2,0.02-0.35,0.03-0.44,0.03
		c-0.86,0-1.28-0.29-1.28-0.87c0-0.34,0.03-0.87,0.08-1.57c0.06-0.71,0.08-1.23,0.08-1.57c0-0.45-0.03-1.13-0.08-2.05
		c-0.06-0.92-0.08-1.6-0.08-2.05c0-0.43,0.72-0.66,2.16-0.71c0.81-0.02,1.25-0.24,1.32-0.64c0.13-0.81,0.18-2.1,0.13-3.85
		c-0.09-2.76-0.13-4.08-0.13-3.95c0-2.48,0.25-3.72,0.74-3.72c0.61,0,1.47,0.13,2.6,0.38c1.28,0.28,2.17,0.44,2.67,0.48
		c1.15,0.15,2.88,0.35,5.2,0.61c0.56,0.04,0.84,0.22,0.84,0.55c0,0.86-0.07,2.15-0.22,3.88c-0.15,1.73-0.22,3.04-0.22,3.91
		c0,1.05,0.33,1.57,0.98,1.57c0.79,0,1.98-0.03,3.58-0.1c1.6-0.06,2.8-0.1,3.61-0.1c0.49,0,0.74,0.16,0.74,0.48
		c0,0.49-0.06,1.23-0.17,2.21c-0.11,0.98-0.17,1.72-0.17,2.21c0,0.51,0.01,1.26,0.03,2.25c0.02,0.98,0.03,1.73,0.03,2.25
		c0,0.45-0.33,0.67-0.98,0.67c-0.45,0-1.2-0.02-2.26-0.05c-1.06-0.03-1.81-0.05-2.26-0.05h-2.53c-0.34,0-0.51,0.47-0.51,1.41
		c0,0.51,0,1.27,0,2.28c0.02,1.03,0.03,1.79,0.03,2.28c0,1.8,0.21,3.04,0.64,3.72c0.61,0.92,1.8,1.38,3.58,1.38
		c0.56,0,1.37-0.12,2.41-0.37c1.05-0.25,1.78-0.37,2.21-0.37C325.55,40.61,325.79,40.85,325.79,41.32z"/>
	<path class="st0" d="M361.82,34.93c0,4.88-1.57,8.84-4.71,11.87c-3.14,3.04-7.27,4.56-12.37,4.56c-4.95,0-9.03-1.5-12.22-4.49
		c-3.2-3-4.79-6.85-4.79-11.55c0-4.96,1.53-8.99,4.59-12.08c3.06-3.09,7.2-4.64,12.42-4.64c5.09,0,9.21,1.51,12.36,4.54
		C360.24,26.17,361.82,30.1,361.82,34.93z M350.74,34.93c0-1.69-0.55-3.18-1.66-4.48c-1.1-1.29-2.53-1.94-4.29-1.94
		c-1.78,0-3.24,0.66-4.39,1.99c-1.08,1.24-1.62,2.72-1.62,4.43c0,1.73,0.54,3.22,1.62,4.46c1.15,1.33,2.61,1.99,4.39,1.99
		c1.76,0,3.21-0.66,4.36-1.99C350.21,38.15,350.74,36.67,350.74,34.93z"/>
	<path class="st0" d="M416.48,49.73c0,0.66-0.33,1-0.98,1h-11.95c-0.65,0-0.98-0.37-0.98-1.12c0-2.16,0.08-5.4,0.25-9.72
		c0.17-4.32,0.25-7.56,0.25-9.72c0-0.62-0.1-0.95-0.3-1c-0.25,0.13-1.76,3.43-4.52,9.92c-1.62,3.81-3.24,7.61-4.86,11.39
		c-0.23,0.49-0.51,0.78-0.84,0.87c-0.11,0.02-0.56,0.03-1.35,0.03c-1.17,0-1.87-0.21-2.09-0.64c-1.22-2.35-2.81-5.78-4.79-10.27
		c-2.12-4.75-3.7-8.18-4.76-10.3c-0.05-0.11-0.15-0.22-0.3-0.35c-0.16,0.19-0.24,0.5-0.24,0.93c0,2.1,0.06,5.24,0.17,9.44
		c0.11,4.19,0.17,7.34,0.17,9.44c0,0.75-0.31,1.12-0.95,1.12h-11.28c-0.45,0-0.73-0.07-0.83-0.21c-0.1-0.14-0.15-0.38-0.15-0.72
		c0-2.33,0.12-5.84,0.35-10.51c0.24-4.67,0.35-8.18,0.35-10.51c0-2.48-0.11-7.14-0.34-13.96c-0.02-1.78-0.12-4.42-0.3-7.93
		l-0.03-0.55c-0.02-0.43,0.45-0.64,1.42-0.64c1.24,0,3.09-0.04,5.57-0.11c2.48-0.07,4.33-0.11,5.57-0.11c0.25,0,0.59,0.45,1.05,1.35
		l9.86,20.57c0.7,1.39,1.28,2.09,1.76,2.09c0.25,0,0.78-0.8,1.59-2.41c2.27-4.49,5.64-11.27,10.1-20.31
		c0.38-0.83,0.8-1.25,1.25-1.25c0.65,0,1.64,0.03,2.95,0.1c1.32,0.06,2.31,0.1,2.99,0.1c0.56,0,1.42-0.05,2.58-0.16
		s2.02-0.16,2.58-0.16c0.67,0,1.01,0.26,1.01,0.77c0,2.52-0.1,6.3-0.29,11.31c-0.19,5.02-0.29,8.79-0.29,11.31
		c0,2.33,0.1,5.83,0.3,10.49C416.38,43.93,416.48,47.42,416.48,49.73z"/>
	<path class="st0" d="M455.01,34.93c0,4.88-1.57,8.84-4.71,11.87c-3.14,3.04-7.27,4.56-12.37,4.56c-4.95,0-9.03-1.5-12.22-4.49
		c-3.2-3-4.79-6.85-4.79-11.55c0-4.96,1.53-8.99,4.59-12.08c3.06-3.09,7.2-4.64,12.42-4.64c5.09,0,9.21,1.51,12.36,4.54
		C453.43,26.17,455.01,30.1,455.01,34.93z M443.93,34.93c0-1.69-0.55-3.18-1.66-4.48c-1.1-1.29-2.53-1.94-4.29-1.94
		c-1.78,0-3.24,0.66-4.39,1.99c-1.08,1.24-1.62,2.72-1.62,4.43c0,1.73,0.54,3.22,1.62,4.46c1.15,1.33,2.61,1.99,4.39,1.99
		c1.76,0,3.21-0.66,4.36-1.99C443.41,38.15,443.93,36.67,443.93,34.93z"/>
	<path class="st0" d="M481.68,41.32c0,0.64-0.09,1.62-0.25,2.92c-0.17,1.31-0.25,2.26-0.25,2.87c0,0.61-0.07,1-0.2,1.17
		c-0.13,0.17-0.51,0.42-1.11,0.74c-2.9,1.52-6.12,2.28-9.66,2.28c-6.5,0-9.76-2.36-9.76-7.09c0-1.41,0.06-3.54,0.17-6.37
		c0.11-2.83,0.17-4.96,0.17-6.37c0-0.94-0.57-1.41-1.72-1.41c-0.09,0-0.24,0-0.44,0c-0.2,0.02-0.35,0.03-0.44,0.03
		c-0.85,0-1.28-0.29-1.28-0.87c0-0.34,0.03-0.87,0.09-1.57c0.06-0.71,0.08-1.23,0.08-1.57c0-0.45-0.03-1.13-0.08-2.05
		c-0.06-0.92-0.09-1.6-0.09-2.05c0-0.43,0.72-0.66,2.16-0.71c0.81-0.02,1.25-0.24,1.32-0.64c0.13-0.81,0.18-2.1,0.13-3.85
		c-0.09-2.76-0.13-4.08-0.13-3.95c0-2.48,0.25-3.72,0.74-3.72c0.61,0,1.47,0.13,2.6,0.38c1.28,0.28,2.17,0.44,2.67,0.48
		c1.15,0.15,2.88,0.35,5.2,0.61c0.56,0.04,0.84,0.22,0.84,0.55c0,0.86-0.07,2.15-0.22,3.88c-0.15,1.73-0.22,3.04-0.22,3.91
		c0,1.05,0.33,1.57,0.98,1.57c0.79,0,1.98-0.03,3.58-0.1c1.6-0.06,2.8-0.1,3.61-0.1c0.49,0,0.74,0.16,0.74,0.48
		c0,0.49-0.06,1.23-0.17,2.21c-0.11,0.98-0.17,1.72-0.17,2.21c0,0.51,0.01,1.26,0.03,2.25c0.02,0.98,0.03,1.73,0.03,2.25
		c0,0.45-0.33,0.67-0.98,0.67c-0.45,0-1.2-0.02-2.26-0.05c-1.06-0.03-1.81-0.05-2.26-0.05h-2.53c-0.34,0-0.51,0.47-0.51,1.41
		c0,0.51,0,1.27,0,2.28c0.02,1.03,0.03,1.79,0.03,2.28c0,1.8,0.21,3.04,0.64,3.72c0.61,0.92,1.8,1.38,3.58,1.38
		c0.56,0,1.37-0.12,2.41-0.37c1.05-0.25,1.78-0.37,2.21-0.37C481.45,40.61,481.68,40.85,481.68,41.32z"/>
	<path class="st0" d="M497.72,35.99c0,1.56,0.03,3.89,0.1,6.98c0.07,3.09,0.1,5.41,0.1,6.95c0,0.45-0.28,0.72-0.84,0.8
		c-0.77,0.13-2.49,0.19-5.17,0.19c-2.7,0-4.43-0.06-5.2-0.19c-0.5-0.08-0.8-0.22-0.91-0.42c-0.05-0.09-0.07-0.41-0.07-0.96
		c0-1.48,0.03-3.7,0.1-6.66c0.07-2.96,0.1-5.19,0.1-6.69c0-6.08-0.25-10.91-0.74-14.51c-0.05-0.34-0.07-0.57-0.07-0.67
		c0-0.43,0.3-0.64,0.91-0.64c0.63,0,1.59,0.06,2.89,0.19c1.29,0.13,2.27,0.19,2.92,0.19c0.65,0,1.63-0.05,2.94-0.16
		c1.31-0.11,2.28-0.16,2.94-0.16c0.54,0,0.81,0.21,0.81,0.64c0,0.09-0.02,0.29-0.07,0.61C497.97,25.66,497.72,30.49,497.72,35.99z
		 M498.6,12.15c0,3.72-2.21,5.58-6.62,5.58c-1.89,0-3.46-0.47-4.69-1.41c-1.35-1.03-2.03-2.42-2.03-4.17c0-1.67,0.7-3.04,2.09-4.11
		c1.28-0.98,2.82-1.48,4.63-1.48c1.76,0,3.27,0.5,4.56,1.51C497.91,9.14,498.6,10.5,498.6,12.15z"/>
	<path class="st0" d="M536.72,28.45c0,3.66-0.12,5.82-0.37,6.48c-0.52,1.52-2.07,4.1-4.66,7.73c-2.25,3.12-4.18,5.56-5.77,7.32
		c-0.59,0.66-2.35,0.99-5.3,0.99c-2.57,0-4.23-0.09-5-0.26c-0.47-0.11-0.87-0.32-1.18-0.64c-1.35-1.39-3.28-3.81-5.77-7.25
		c-2.68-3.7-4.28-6.24-4.79-7.61c-0.56-1.48-0.84-3.69-0.84-6.64c0-0.83,0.01-2.09,0.03-3.77c0.02-1.68,0.03-2.95,0.03-3.8
		c0-0.56,0.39-0.83,1.18-0.83c1.15,0,2.88,0.03,5.18,0.1c2.31,0.06,4.03,0.1,5.18,0.1c0.52,0,0.78,0.33,0.78,0.99
		c0,0.6-0.05,1.5-0.13,2.71c-0.09,1.21-0.13,2.12-0.13,2.74c0,2.23,0.07,4.04,0.2,5.46c0.07,0.73,0.72,2.1,1.96,4.11
		c1.28,2.12,2.22,3.18,2.8,3.18c0.56,0,1.46-1.04,2.7-3.11c1.19-1.95,1.83-3.27,1.92-3.98c0.18-1.52,0.27-3.36,0.27-5.52
		c0-0.62-0.07-1.56-0.2-2.81c-0.14-1.25-0.2-2.18-0.2-2.78c0-0.66,0.24-0.99,0.71-0.99c0.54,0,1.35,0.01,2.41,0.03
		c1.07,0.02,1.87,0.03,2.41,0.03c0.54,0,1.36-0.04,2.45-0.13c1.09-0.09,1.91-0.13,2.45-0.13c0.56,0,0.93,0.28,1.11,0.83
		C536.53,22.22,536.72,24.71,536.72,28.45z"/>
	<path class="st0" d="M572.24,33.3c0,2.16-0.73,3.39-2.19,3.69c-0.25,0.04-2.58,0.28-6.99,0.71c-2.66,0.28-6.62,0.61-11.89,1
		c0.31,1.39,1.27,2.45,2.87,3.18c1.3,0.6,2.79,0.9,4.46,0.9c2,0,4.02-0.51,6.04-1.54c0.85-0.51,1.71-1.03,2.57-1.54
		c0.47,0.21,1.27,1.31,2.38,3.27c1.12,1.97,1.67,3.22,1.67,3.76c0,0.15-0.17,0.4-0.51,0.74c-2.75,2.8-7.01,4.2-12.8,4.2
		c-5.36,0-9.68-1.49-12.97-4.46c-3.38-3.02-5.06-7.05-5.06-12.1c0-4.92,1.51-8.95,4.52-12.1c3.11-3.25,7.23-4.88,12.36-4.88
		c4.32,0,7.99,1.5,11.01,4.49C570.73,25.61,572.24,29.17,572.24,33.3z M560.42,31.34c0-1.33-0.49-2.49-1.49-3.5
		c-0.99-1.01-2.17-1.51-3.55-1.51c-1.42,0-2.59,0.57-3.51,1.7c-0.85,1.05-1.28,2.28-1.28,3.69c0,0.58,0.32,0.87,0.95,0.87
		c1.67,0,4.25-0.25,7.77-0.74C560.05,31.75,560.42,31.57,560.42,31.34z"/>
</g>
<line class="st1" x1="212.34" y1="67.23" x2="572.14" y2="67.23"/>
<g>
	<g>
		<path class="st0" d="M228.57,101.51c0,0.16-0.04,0.39-0.13,0.69c-0.1,0.38-0.16,0.61-0.18,0.69c-0.03,0.36-0.11,0.89-0.23,1.59
			c-0.05,0.18-0.19,0.27-0.42,0.27c-0.11,0-0.31-0.02-0.62-0.06c-1.33-0.18-3.39-0.27-6.18-0.27c-0.79,0-1.98,0.02-3.57,0.06
			c-1.59,0.04-2.78,0.06-3.57,0.06c-0.36,0-0.54-0.15-0.54-0.44c0-1.13,0.07-2.82,0.2-5.08c0.14-2.26,0.2-3.95,0.2-5.08
			c0-1.15-0.06-3.29-0.19-6.42c-0.02-0.81-0.08-2.01-0.18-3.61l-0.02-0.21c-0.01-0.23,0.13-0.35,0.42-0.35
			c0.76,0,1.89,0.02,3.4,0.06c1.51,0.04,2.65,0.06,3.4,0.06c0.72,0,1.81-0.02,3.25-0.06c1.44-0.04,2.53-0.06,3.25-0.06
			c0.51,0,0.78,0.15,0.83,0.44c0.23,1.33,0.34,2.15,0.34,2.48c0,0.23-0.12,0.35-0.36,0.35c-0.92,0-2.31-0.05-4.17-0.14
			c-1.86-0.1-3.27-0.14-4.21-0.14c-0.89,0-1.45,0.11-1.68,0.33c-0.23,0.22-0.35,0.77-0.35,1.65v2.25c0,0.61,0.02,0.97,0.05,1.07
			c0.1,0.31,0.38,0.47,0.84,0.47c0.13,0,0.31-0.01,0.55-0.02c0.25,0,0.43,0,0.55,0c2.12,0,4.02-0.04,5.71-0.11
			c0.66-0.02,1.44-0.07,2.33-0.15c0.23-0.02,0.34,0.07,0.34,0.27c0,0.32-0.04,0.81-0.12,1.48c-0.08,0.66-0.12,1.16-0.12,1.49
			c0,0.18-0.16,0.27-0.49,0.27c-0.13,0-0.61-0.04-1.44-0.11c-0.61-0.06-1.97-0.09-4.09-0.09c-1.78,0-2.91,0.02-3.39,0.06
			c-0.43,0.03-0.68,0.24-0.75,0.63c0.01-0.07,0.02,0.32,0.02,1.16v2.23c0,1.05,0.17,1.7,0.52,1.96c0.27,0.21,0.95,0.32,2.03,0.32
			l1.78-0.02c0.76,0,2.88-0.12,6.37-0.36l0.24-0.02C228.46,101.12,228.57,101.24,228.57,101.51z"/>
		<path class="st0" d="M235.27,86.49c0,1.24-0.74,1.86-2.22,1.86c-1.5,0-2.25-0.62-2.25-1.86c0-0.55,0.23-1.01,0.7-1.37
			c0.43-0.34,0.95-0.51,1.56-0.51c0.61,0,1.13,0.18,1.56,0.53C235.05,85.48,235.27,85.94,235.27,86.49z M235.15,90.58
			c0,0.78-0.05,1.95-0.15,3.51c-0.1,1.57-0.15,2.74-0.15,3.53c0,0.74,0.02,1.84,0.05,3.3c0.03,1.47,0.05,2.56,0.05,3.29
			c0,0.21-0.1,0.32-0.29,0.32h-3.16c-0.23,0-0.34-0.21-0.34-0.62c0-0.69,0.02-1.74,0.06-3.13c0.04-1.39,0.06-2.44,0.06-3.15
			c0-0.78-0.06-1.96-0.19-3.53c-0.12-1.57-0.19-2.75-0.19-3.53c0-0.17,0.11-0.26,0.34-0.26c0.19,0,0.49,0.03,0.9,0.08
			c0.41,0.05,0.71,0.08,0.92,0.08c0.21,0,0.51-0.03,0.92-0.08c0.41-0.05,0.71-0.08,0.92-0.08
			C235.06,90.29,235.15,90.39,235.15,90.58z"/>
		<path class="st0" d="M247.39,101.77c0,0.22-0.02,0.52-0.06,0.91c-0.05,0.47-0.09,0.78-0.1,0.92c-0.01,0.18-0.03,0.29-0.05,0.33
			c-0.04,0.07-0.15,0.14-0.31,0.21c-0.89,0.39-2.28,0.59-4.18,0.59c-2.53,0-3.79-1.07-3.79-3.2c0-0.86,0.02-2.14,0.06-3.86
			c0.04-1.72,0.06-3,0.06-3.86c0-0.41-0.22-0.63-0.66-0.66c-0.4,0-0.79-0.01-1.18-0.01c-0.23-0.05-0.34-0.46-0.34-1.24
			c0-0.29,0.02-0.6,0.06-0.92c0.03-0.24,0.21-0.39,0.52-0.44c0.27,0,0.54-0.01,0.79-0.01c0.5-0.02,0.75-0.23,0.75-0.62
			c0-0.4-0.01-1.02-0.04-1.84c-0.03-0.83-0.04-1.44-0.04-1.86c0-0.73,0.15-1.1,0.45-1.1c0.1,0,1.11,0.16,3.05,0.47
			c0.25,0.03,0.37,0.14,0.37,0.33c0,0.44-0.04,1.11-0.11,1.99c-0.07,0.89-0.11,1.55-0.11,1.99c0,0.29,0.15,0.44,0.44,0.44h3.89
			c0.18,0,0.28,0.06,0.28,0.18c0,0.12-0.02,0.31-0.06,0.58c-0.04,0.27-0.06,0.47-0.06,0.6c0,0.15,0.01,0.38,0.02,0.69
			s0.02,0.54,0.02,0.69c0,0.19-0.15,0.29-0.45,0.29c-0.43,0-1.09-0.03-1.96-0.08c-0.88-0.06-1.53-0.08-1.96-0.08
			c-0.09,0-0.15,0.29-0.19,0.86c-0.05,0.71-0.08,1.72-0.08,3v2.25c0,0.87,0.09,1.47,0.26,1.81c0.26,0.52,0.79,0.78,1.61,0.78
			c0.33,0,0.83-0.07,1.47-0.2s1.13-0.2,1.44-0.2C247.33,101.5,247.39,101.59,247.39,101.77z"/>
		<path class="st0" d="M263.87,104.02c0,0.37-0.11,0.56-0.34,0.56c-0.34,0-0.84-0.01-1.52-0.02c-0.68-0.01-1.19-0.02-1.52-0.02
			c-0.27,0-0.41-0.17-0.41-0.5c0-0.48,0.02-1.21,0.06-2.19c0.04-0.98,0.06-1.71,0.06-2.2c0-0.46-0.02-1.17-0.06-2.11
			c-0.04-0.94-0.06-1.65-0.06-2.12c0-1.81-0.92-2.72-2.76-2.72c-0.59,0-1.37,0.28-2.33,0.83c-1.03,0.59-1.54,1.14-1.54,1.63v8.97
			c0,0.29-0.11,0.44-0.34,0.44c-0.34,0-0.84-0.01-1.51-0.02c-0.67-0.01-1.17-0.02-1.51-0.02c-0.25,0-0.37-0.14-0.37-0.41v-7.29
			c0-1.19-0.07-3.71-0.21-7.58c-0.02-1.2-0.11-2.97-0.28-5.31c-0.02-0.12-0.03-0.2-0.03-0.24c0-0.17,0.06-0.28,0.19-0.32
			c0.18-0.06,0.79-0.09,1.83-0.09c0.23,0,0.57-0.04,1.02-0.11c0.45-0.08,0.78-0.11,0.99-0.11c0.14,0,0.21,0.1,0.21,0.29
			c0,0.95-0.04,2.37-0.12,4.27c-0.08,1.9-0.12,3.32-0.12,4.27c0,0.23,0.04,0.35,0.13,0.36c0.55-0.43,1.26-0.96,2.14-1.57
			c1.06-0.61,2.18-0.92,3.36-0.92c2.03,0,3.43,0.56,4.2,1.69c0.55,0.83,0.83,2.13,0.83,3.93c0,0.31-0.01,0.79-0.02,1.44
			c-0.02,0.65-0.02,1.13-0.02,1.44c0,0.64,0.01,1.61,0.03,2.88C263.85,102.43,263.87,103.39,263.87,104.02z"/>
		<path class="st0" d="M280.71,96.44c0,0.74-0.35,1.24-1.04,1.49c-0.46,0.16-3.81,0.46-10.04,0.89c0.14,0.89,0.66,1.64,1.57,2.27
			c0.86,0.59,1.79,0.89,2.79,0.89c1.71,0,3.28-0.51,4.7-1.54c0.17-0.13,0.35-0.26,0.52-0.39c0.09,0,0.14,0.01,0.17,0.03
			c0.03,0.02,0.23,0.37,0.61,1.05c0.38,0.68,0.57,1.04,0.57,1.09c0,0.06-0.09,0.18-0.26,0.35c-1.59,1.57-3.63,2.36-6.11,2.36
			c-2.51,0-4.51-0.7-6-2.09c-1.49-1.39-2.24-3.25-2.24-5.58c0-2.07,0.71-3.88,2.14-5.42c1.5-1.6,3.35-2.4,5.53-2.4
			c2.03,0,3.73,0.69,5.09,2.08C280.04,92.87,280.71,94.51,280.71,96.44z M276.85,95.52c0-0.83-0.35-1.58-1.06-2.22
			c-0.71-0.64-1.51-0.97-2.39-0.97c-1,0-1.88,0.37-2.65,1.12c-0.77,0.74-1.16,1.58-1.16,2.51c0,0.21,0.19,0.32,0.58,0.32
			c1.6,0,3.51-0.15,5.74-0.45C276.54,95.74,276.85,95.64,276.85,95.52z"/>
		<path class="st0" d="M292.25,90.37c0,1.11-0.08,2.11-0.24,3.02c-0.03,0.23-0.14,0.35-0.32,0.35c-0.23,0-0.57-0.02-1.03-0.07
			c-0.46-0.04-0.81-0.07-1.05-0.07c-1.36,0-2.23,0.36-2.61,1.07c-0.23,0.43-0.34,1.33-0.34,2.7v1.66c0,0.56,0.02,1.42,0.07,2.57
			c0.05,1.15,0.07,2,0.07,2.57c0,0.27-0.12,0.41-0.37,0.41c-0.34,0-0.84-0.01-1.52-0.02c-0.68-0.01-1.19-0.02-1.52-0.02
			c-0.25,0-0.37-0.13-0.37-0.38c0-0.82,0.01-2.04,0.04-3.68c0.03-1.64,0.04-2.87,0.04-3.7c0-2.49-0.25-4.49-0.75-5.99
			c-0.02-0.08-0.03-0.14-0.03-0.18c0-0.12,0.07-0.21,0.21-0.26c0.4-0.04,0.96-0.1,1.69-0.18c1.17-0.2,1.71-0.3,1.62-0.3
			c0.17,0,0.29,0.3,0.34,0.89c0.05,0.59,0.15,0.89,0.29,0.89c0.02,0,0.05-0.01,0.08-0.03c0.44-0.26,0.89-0.52,1.33-0.79
			c0.49-0.27,0.98-0.47,1.49-0.6c0.42-0.12,0.96-0.18,1.62-0.18C291.83,90.05,292.25,90.16,292.25,90.37z"/>
		<path class="st0" d="M317.45,86.22c0,0.26-0.1,0.39-0.29,0.39c-0.3,0-2.22-0.06-5.74-0.18c-0.1,3.07-0.15,5.53-0.15,7.38
			c0,1.16,0.05,2.89,0.14,5.21c0.09,2.32,0.14,4.05,0.14,5.21c0,0.21-0.16,0.32-0.47,0.32c-0.19,0-0.49-0.02-0.89-0.04
			c-0.4-0.03-0.7-0.05-0.91-0.05c-0.19,0-0.49,0.02-0.89,0.05c-0.4,0.03-0.7,0.04-0.89,0.04c-0.27,0-0.41-0.13-0.41-0.38
			c0-1.15,0.05-2.87,0.15-5.17c0.1-2.3,0.15-4.03,0.15-5.19c0-1.79-0.06-4.25-0.18-7.38c-2.79,0.16-4.83,0.24-6.13,0.24
			c-0.13,0-0.19-0.05-0.19-0.15c0-0.18,0.05-0.44,0.15-0.79c0.12-0.44,0.19-0.7,0.21-0.78c0.02-0.35,0.1-0.84,0.23-1.46
			c0.05-0.13,0.15-0.2,0.28-0.2l0.19,0.01c3.83,0.21,6.35,0.32,7.57,0.32c1.08,0,2.85-0.08,5.3-0.23c1.68-0.1,2.37-0.15,2.09-0.15
			c0.28,0,0.44,0.09,0.47,0.27c-0.02-0.11-0.03,0.38-0.03,1.46c0,0.13,0.02,0.33,0.05,0.61C317.43,85.87,317.45,86.08,317.45,86.22z
			"/>
		<path class="st0" d="M341.13,93.72c0,1.89-0.11,3.08-0.34,3.56c-0.3,0.66-1.1,1.99-2.4,3.97c-1.41,2.14-2.25,3.25-2.55,3.32
			c-0.09,0.02-0.52,0.03-1.3,0.03c-0.53,0-0.84-0.01-0.92-0.03c-0.34-0.08-1.62-1.81-3.86-5.19c-0.62,0.95-1.24,1.9-1.86,2.85
			c-1.02,1.49-1.66,2.27-1.95,2.34c-0.09,0.02-0.44,0.03-1.07,0.03c-0.64,0-1-0.01-1.09-0.03c-0.34-0.07-1.18-1.17-2.54-3.29
			c-1.29-2-2.06-3.34-2.33-4c-0.25-0.6-0.37-1.79-0.37-3.56c0-1.48,0.05-2.49,0.16-3.04c0.05-0.22,0.19-0.33,0.41-0.33
			c0.32,0,0.81,0.01,1.46,0.03c0.65,0.02,1.13,0.03,1.46,0.03c0.2,0,0.31,0.16,0.31,0.47c0,0.22-0.01,0.56-0.03,1
			c-0.02,0.45-0.03,0.78-0.03,1c0,1.75,0.05,2.99,0.16,3.72c0.1,0.63,0.94,1.96,2.54,3.99c0.19,0.24,0.31,0.36,0.34,0.36
			c0.03,0,0.13-0.11,0.29-0.33c1.41-1.9,2.21-3.2,2.4-3.9c0.13-0.48,0.19-1.57,0.19-3.25c0-0.34-0.02-0.85-0.06-1.53
			c-0.04-0.67-0.06-1.18-0.06-1.51c0-0.22,0.1-0.33,0.29-0.33h3.1c0.17,0,0.26,0.13,0.26,0.39c0,0.32-0.02,0.81-0.05,1.46
			s-0.05,1.14-0.05,1.46c0,1.78,0.03,2.81,0.1,3.09c0.06,0.28,0.57,1.07,1.52,2.37c0.95,1.3,1.5,1.96,1.64,1.96
			c0.03,0,0.13-0.12,0.29-0.36c1.37-1.94,2.11-3.24,2.22-3.9c0.1-0.54,0.15-1.46,0.15-2.76c0-0.38-0.03-0.93-0.1-1.65
			c-0.06-0.72-0.1-1.24-0.1-1.55c0-0.15,0.11-0.23,0.32-0.23c0.32,0,0.81-0.01,1.44-0.03c0.64-0.02,1.12-0.03,1.44-0.03
			c0.24,0,0.38,0.1,0.44,0.3C341.09,91.02,341.13,92.05,341.13,93.72z"/>
		<path class="st0" d="M358.27,97.2c0,2.1-0.74,3.9-2.22,5.39c-1.51,1.54-3.39,2.31-5.63,2.31c-2.25,0-4.13-0.76-5.64-2.29
			c-1.48-1.48-2.22-3.27-2.22-5.37c0-2.1,0.74-3.9,2.22-5.38c1.52-1.51,3.4-2.26,5.64-2.26c2.23,0,4.1,0.75,5.61,2.26
			C357.52,93.32,358.27,95.1,358.27,97.2z M354.85,97.23c0-1.23-0.41-2.28-1.22-3.14c-0.84-0.92-1.91-1.37-3.21-1.37
			s-2.37,0.45-3.23,1.36c-0.81,0.88-1.22,1.93-1.22,3.16c0,1.21,0.41,2.26,1.23,3.14c0.86,0.94,1.93,1.4,3.21,1.4
			c1.29,0,2.36-0.47,3.21-1.4C354.44,99.48,354.85,98.43,354.85,97.23z"/>
		<path class="st0" d="M383.54,97.2c0,2.1-0.74,3.9-2.22,5.39c-1.51,1.54-3.39,2.31-5.63,2.31c-2.25,0-4.13-0.76-5.64-2.29
			c-1.48-1.48-2.22-3.27-2.22-5.37c0-2.1,0.74-3.9,2.22-5.38c1.52-1.51,3.4-2.26,5.64-2.26c2.23,0,4.1,0.75,5.61,2.26
			C382.8,93.32,383.54,95.1,383.54,97.2z M380.12,97.23c0-1.23-0.41-2.28-1.22-3.14c-0.84-0.92-1.91-1.37-3.21-1.37
			s-2.37,0.45-3.23,1.36c-0.81,0.88-1.22,1.93-1.22,3.16c0,1.21,0.41,2.26,1.23,3.14c0.86,0.94,1.93,1.4,3.21,1.4
			c1.29,0,2.36-0.47,3.21-1.4C379.72,99.48,380.12,98.43,380.12,97.23z"/>
		<path class="st0" d="M395.1,90.37c0,1.11-0.08,2.11-0.24,3.02c-0.03,0.23-0.14,0.35-0.32,0.35c-0.23,0-0.57-0.02-1.03-0.07
			c-0.46-0.04-0.81-0.07-1.05-0.07c-1.36,0-2.23,0.36-2.61,1.07c-0.23,0.43-0.34,1.33-0.34,2.7v1.66c0,0.56,0.02,1.42,0.07,2.57
			c0.05,1.15,0.07,2,0.07,2.57c0,0.27-0.12,0.41-0.37,0.41c-0.34,0-0.84-0.01-1.52-0.02c-0.68-0.01-1.19-0.02-1.52-0.02
			c-0.25,0-0.37-0.13-0.37-0.38c0-0.82,0.01-2.04,0.04-3.68c0.03-1.64,0.04-2.87,0.04-3.7c0-2.49-0.25-4.49-0.75-5.99
			c-0.02-0.08-0.03-0.14-0.03-0.18c0-0.12,0.07-0.21,0.21-0.26c0.4-0.04,0.96-0.1,1.69-0.18c1.17-0.2,1.71-0.3,1.62-0.3
			c0.17,0,0.29,0.3,0.34,0.89c0.05,0.59,0.15,0.89,0.29,0.89c0.02,0,0.05-0.01,0.08-0.03c0.44-0.26,0.89-0.52,1.33-0.79
			c0.49-0.27,0.98-0.47,1.49-0.6c0.42-0.12,0.96-0.18,1.62-0.18C394.68,90.05,395.1,90.16,395.1,90.37z"/>
		<path class="st0" d="M420.8,86.46c0,0.19-0.11,0.29-0.34,0.29c-0.84,0-2.23-0.05-4.15-0.14c-1.79-0.08-3.18-0.11-4.15-0.09
			l-1.18,0.02c-0.76,0.01-1.16,0.03-1.2,0.04c-0.22,0.08-0.32,0.4-0.32,0.95v3.64c0,0.68,0.16,1.03,0.47,1.03
			c1.05,0,2.63-0.05,4.74-0.14c2.11-0.09,3.69-0.14,4.74-0.14c0.23,0,0.34,0.08,0.34,0.24c0,0.17-0.01,0.43-0.04,0.76
			c-0.03,0.34-0.04,0.59-0.04,0.76c0,0.18,0.01,0.46,0.03,0.82c0.02,0.37,0.03,0.64,0.03,0.82c0,0.12-0.11,0.18-0.34,0.18
			c-0.75,0-1.88-0.02-3.4-0.06s-2.66-0.06-3.41-0.06c-1.39,0-2.18,0.01-2.37,0.03c-0.49,0.05-0.73,0.24-0.73,0.56
			c0,0.91,0.03,2.26,0.08,4.08s0.08,3.17,0.08,4.08c0,0.3-0.13,0.45-0.39,0.45c-0.22,0-0.54-0.02-0.96-0.07
			c-0.43-0.04-0.75-0.07-0.98-0.07c-0.18,0-0.46,0.02-0.84,0.05c-0.38,0.03-0.66,0.04-0.84,0.04c-0.27,0-0.41-0.11-0.41-0.33
			c0-1.12,0.05-2.8,0.15-5.04c0.1-2.24,0.15-3.93,0.15-5.04c0-1.04-0.11-4.41-0.34-10.12v-0.2c-0.01-0.21,0.12-0.33,0.41-0.36
			c0.09,0,0.77,0.01,2.06,0.04c1.7,0.03,3.27,0.04,4.72,0.02c1.96-0.02,4.45-0.12,7.47-0.3c0.41-0.03,0.64,0.14,0.7,0.5
			c-0.01,0.27,0.01,0.69,0.06,1.24C420.73,85.72,420.8,86.23,420.8,86.46z"/>
		<path class="st0" d="M437.58,97.2c0,2.1-0.74,3.9-2.22,5.39c-1.51,1.54-3.39,2.31-5.63,2.31c-2.25,0-4.13-0.76-5.64-2.29
			c-1.48-1.48-2.22-3.27-2.22-5.37c0-2.1,0.74-3.9,2.22-5.38c1.52-1.51,3.4-2.26,5.64-2.26c2.23,0,4.1,0.75,5.61,2.26
			C436.83,93.32,437.58,95.1,437.58,97.2z M434.16,97.23c0-1.23-0.41-2.28-1.22-3.14c-0.84-0.92-1.91-1.37-3.21-1.37
			s-2.37,0.45-3.23,1.36c-0.81,0.88-1.22,1.93-1.22,3.16c0,1.21,0.41,2.26,1.23,3.14c0.86,0.94,1.93,1.4,3.21,1.4
			c1.29,0,2.36-0.47,3.21-1.4C433.75,99.48,434.16,98.43,434.16,97.23z"/>
		<path class="st0" d="M454.87,90.85c0,0.73-0.03,1.84-0.1,3.33c-0.06,1.49-0.1,2.6-0.1,3.35c0,0.73,0.02,1.83,0.07,3.3
			c0.05,1.46,0.07,2.56,0.07,3.3c0,0.2-0.1,0.33-0.31,0.39c-0.09,0.02-1.18,0.03-3.29,0.03c-0.13,0-0.21-0.38-0.24-1.13
			c-0.03-0.76-0.09-1.13-0.19-1.13c-0.05,0-0.14,0.05-0.24,0.14c-1.81,1.46-3.59,2.19-5.35,2.19c-2.39,0-3.97-0.81-4.73-2.42
			c-0.48-1-0.71-2.79-0.71-5.38c0-2.33,0.2-4.31,0.6-5.93c0.1-0.39,0.28-0.59,0.54-0.59c0.31,0,0.78,0.01,1.41,0.01
			c0.63,0.01,1.1,0.02,1.41,0.02c0.22,0,0.32,0.11,0.32,0.33c0,0.39-0.07,1.05-0.21,1.96c-0.15,0.98-0.23,1.67-0.24,2.07
			c-0.03,0.6-0.05,1.27-0.05,1.99c0,1.76,0.13,2.94,0.4,3.55c0.46,1.09,1.5,1.63,3.1,1.63c0.68,0,1.49-0.31,2.42-0.94
			c0.98-0.65,1.49-1.28,1.52-1.89c0.05-0.76,0.08-3.41,0.08-7.97c0-0.49,0.22-0.74,0.66-0.74h2.67
			C454.72,90.33,454.87,90.5,454.87,90.85z"/>
		<path class="st0" d="M467.45,90.37c0,1.11-0.08,2.11-0.24,3.02c-0.03,0.23-0.14,0.35-0.32,0.35c-0.23,0-0.57-0.02-1.03-0.07
			c-0.46-0.04-0.81-0.07-1.05-0.07c-1.36,0-2.23,0.36-2.61,1.07c-0.23,0.43-0.34,1.33-0.34,2.7v1.66c0,0.56,0.02,1.42,0.07,2.57
			c0.05,1.15,0.07,2,0.07,2.57c0,0.27-0.12,0.41-0.37,0.41c-0.34,0-0.84-0.01-1.52-0.02c-0.68-0.01-1.19-0.02-1.52-0.02
			c-0.25,0-0.37-0.13-0.37-0.38c0-0.82,0.01-2.04,0.04-3.68c0.03-1.64,0.04-2.87,0.04-3.7c0-2.49-0.25-4.49-0.75-5.99
			c-0.02-0.08-0.03-0.14-0.03-0.18c0-0.12,0.07-0.21,0.21-0.26c0.4-0.04,0.96-0.1,1.69-0.18c1.17-0.2,1.71-0.3,1.62-0.3
			c0.17,0,0.29,0.3,0.34,0.89c0.05,0.59,0.15,0.89,0.29,0.89c0.02,0,0.05-0.01,0.08-0.03c0.44-0.26,0.89-0.52,1.33-0.79
			c0.49-0.27,0.98-0.47,1.49-0.6c0.42-0.12,0.96-0.18,1.62-0.18C467.03,90.05,467.45,90.16,467.45,90.37z"/>
		<path class="st0" d="M504.53,91.09c0,0.08-1.08,2.23-3.24,6.46c-0.72,1.47-1.83,3.66-3.32,6.58c-0.14,0.27-0.29,0.41-0.44,0.41
			h-2.92c-0.21,0-0.37-0.14-0.5-0.41c-0.8-1.75-1.95-4.51-3.45-8.28c-0.75,1.85-1.91,4.61-3.49,8.28c-0.12,0.27-0.28,0.41-0.49,0.41
			h-2.9c-0.16,0-0.31-0.14-0.45-0.41c-0.75-1.46-1.86-3.65-3.35-6.58c-2.06-4.01-3.1-6.16-3.1-6.46c0-0.83,0.03-2.07,0.08-3.73
			s0.08-2.9,0.08-3.73c0-0.18,0.14-0.27,0.41-0.27c0.19,0,0.49,0.02,0.88,0.05s0.69,0.05,0.88,0.05c0.18,0,0.46-0.01,0.83-0.03
			c0.37-0.02,0.64-0.03,0.83-0.03c0.23,0,0.34,0.08,0.34,0.23c0,0.82-0.05,2.05-0.15,3.69c-0.1,1.65-0.15,2.88-0.15,3.69
			c0,0.51,1.09,2.84,3.27,6.98c0.72,1.37,1.12,2.05,1.18,2.05c0.02-0.01,0.05-0.05,0.08-0.11c0.13-0.23,0.41-0.88,0.83-1.93
			c0.78-1.96,1.58-4.19,2.4-6.69c0.03-0.25,0.05-1.05,0.05-2.39c0-0.59-0.02-1.48-0.06-2.66c-0.04-1.18-0.06-2.07-0.06-2.67
			c0-0.15,0.11-0.23,0.34-0.23c0.21,0,0.51,0.02,0.92,0.05c0.41,0.03,0.72,0.05,0.94,0.05c0.18,0,0.46-0.02,0.83-0.05
			c0.37-0.03,0.64-0.05,0.83-0.05c0.25,0,0.37,0.08,0.37,0.24c0,0.63-0.02,1.59-0.06,2.86c-0.04,1.27-0.06,2.23-0.06,2.86
			c0,1.04,0.01,1.67,0.02,1.89c0.03,0.5,0.85,2.71,2.45,6.63c0.17,0.44,0.45,1.08,0.84,1.9c0.01,0.04,0.03,0.08,0.06,0.11
			c0.06,0,0.45-0.67,1.15-2.01c2.13-4.06,3.19-6.35,3.19-6.87c0-0.83-0.05-2.06-0.15-3.7s-0.15-2.87-0.15-3.68
			c0-0.15,0.04-0.23,0.13-0.23c0.22,0,0.54,0.02,0.96,0.05s0.75,0.05,0.96,0.05c0.19,0,0.49-0.02,0.89-0.05
			c0.4-0.03,0.7-0.05,0.91-0.05c0.23,0,0.36,0.06,0.39,0.18c0-0.01,0,0.13,0,0.42c0,0.8,0.03,1.98,0.08,3.56
			S504.53,90.3,504.53,91.09z"/>
		<path class="st0" d="M521.31,104.02c0,0.37-0.11,0.56-0.34,0.56c-0.34,0-0.84-0.01-1.52-0.02c-0.68-0.01-1.19-0.02-1.52-0.02
			c-0.27,0-0.41-0.17-0.41-0.5c0-0.48,0.02-1.21,0.06-2.19c0.04-0.98,0.06-1.71,0.06-2.2c0-0.46-0.02-1.17-0.06-2.11
			c-0.04-0.94-0.06-1.65-0.06-2.12c0-1.81-0.92-2.72-2.76-2.72c-0.59,0-1.37,0.28-2.33,0.83c-1.03,0.59-1.54,1.14-1.54,1.63v8.97
			c0,0.29-0.11,0.44-0.34,0.44c-0.34,0-0.84-0.01-1.51-0.02c-0.67-0.01-1.17-0.02-1.51-0.02c-0.25,0-0.37-0.14-0.37-0.41v-7.29
			c0-1.19-0.07-3.71-0.21-7.58c-0.02-1.2-0.11-2.97-0.28-5.31c-0.02-0.12-0.03-0.2-0.03-0.24c0-0.17,0.06-0.28,0.19-0.32
			c0.18-0.06,0.79-0.09,1.83-0.09c0.23,0,0.57-0.04,1.02-0.11c0.45-0.08,0.78-0.11,0.99-0.11c0.14,0,0.21,0.1,0.21,0.29
			c0,0.95-0.04,2.37-0.12,4.27c-0.08,1.9-0.12,3.32-0.12,4.27c0,0.23,0.04,0.35,0.13,0.36c0.55-0.43,1.26-0.96,2.14-1.57
			c1.06-0.61,2.18-0.92,3.36-0.92c2.03,0,3.43,0.56,4.2,1.69c0.55,0.83,0.83,2.13,0.83,3.93c0,0.31-0.01,0.79-0.02,1.44
			c-0.02,0.65-0.02,1.13-0.02,1.44c0,0.64,0.01,1.61,0.03,2.88C521.3,102.43,521.31,103.39,521.31,104.02z"/>
		<path class="st0" d="M538.16,96.44c0,0.74-0.35,1.24-1.04,1.49c-0.46,0.16-3.81,0.46-10.04,0.89c0.14,0.89,0.66,1.64,1.57,2.27
			c0.86,0.59,1.79,0.89,2.79,0.89c1.71,0,3.28-0.51,4.7-1.54c0.17-0.13,0.35-0.26,0.52-0.39c0.09,0,0.14,0.01,0.17,0.03
			s0.23,0.37,0.61,1.05c0.38,0.68,0.57,1.04,0.57,1.09c0,0.06-0.09,0.18-0.26,0.35c-1.59,1.57-3.63,2.36-6.11,2.36
			c-2.51,0-4.51-0.7-6-2.09c-1.49-1.39-2.24-3.25-2.24-5.58c0-2.07,0.71-3.88,2.14-5.42c1.5-1.6,3.34-2.4,5.53-2.4
			c2.03,0,3.73,0.69,5.09,2.08C537.49,92.87,538.16,94.51,538.16,96.44z M534.3,95.52c0-0.83-0.35-1.58-1.06-2.22
			c-0.71-0.64-1.51-0.97-2.39-0.97c-0.99,0-1.88,0.37-2.65,1.12c-0.77,0.74-1.16,1.58-1.16,2.51c0,0.21,0.19,0.32,0.58,0.32
			c1.6,0,3.51-0.15,5.74-0.45C533.98,95.74,534.3,95.64,534.3,95.52z"/>
		<path class="st0" d="M554.16,96.44c0,0.74-0.35,1.24-1.04,1.49c-0.46,0.16-3.81,0.46-10.04,0.89c0.14,0.89,0.66,1.64,1.57,2.27
			c0.86,0.59,1.79,0.89,2.79,0.89c1.71,0,3.28-0.51,4.7-1.54c0.17-0.13,0.35-0.26,0.52-0.39c0.09,0,0.14,0.01,0.17,0.03
			s0.23,0.37,0.61,1.05c0.38,0.68,0.57,1.04,0.57,1.09c0,0.06-0.09,0.18-0.26,0.35c-1.59,1.57-3.63,2.36-6.11,2.36
			c-2.51,0-4.51-0.7-6-2.09c-1.49-1.39-2.24-3.25-2.24-5.58c0-2.07,0.71-3.88,2.14-5.42c1.5-1.6,3.34-2.4,5.53-2.4
			c2.03,0,3.73,0.69,5.09,2.08C553.49,92.87,554.16,94.51,554.16,96.44z M550.3,95.52c0-0.83-0.35-1.58-1.06-2.22
			c-0.71-0.64-1.51-0.97-2.39-0.97c-0.99,0-1.88,0.37-2.65,1.12c-0.77,0.74-1.16,1.58-1.16,2.51c0,0.21,0.19,0.32,0.58,0.32
			c1.6,0,3.51-0.15,5.74-0.45C549.98,95.74,550.3,95.64,550.3,95.52z"/>
		<path class="st0" d="M560.53,83.61l-0.02,0.2c-0.24,3.74-0.36,6.96-0.36,9.65c0,1.2,0.02,2.99,0.06,5.38
			c0.04,2.39,0.06,4.18,0.06,5.37c0,0.23-0.09,0.35-0.26,0.35h-3.1c-0.19,0-0.29-0.12-0.29-0.35c0-1.19,0.01-2.98,0.03-5.37
			c0.02-2.39,0.03-4.19,0.03-5.38c0-1.09-0.06-2.72-0.17-4.9c-0.11-2.18-0.17-3.81-0.17-4.88c0-0.2,0.11-0.3,0.34-0.3
			c0.19,0,0.49,0.02,0.88,0.05c0.39,0.03,0.68,0.05,0.88,0.05c0.21,0,0.51-0.02,0.91-0.05c0.4-0.03,0.7-0.05,0.89-0.05
			C560.45,83.36,560.54,83.44,560.53,83.61z"/>
		<path class="st0" d="M571.32,99.9c0,1.5-0.64,2.7-1.93,3.61c-1.17,0.83-2.59,1.24-4.26,1.24c-0.65,0-1.02-0.02-1.1-0.04
			c-0.18-0.08-0.28-0.33-0.28-0.74c0-0.22-0.03-0.55-0.09-1c-0.06-0.44-0.09-0.77-0.09-0.98c0-0.13,0.1-0.22,0.29-0.26
			c0.14-0.03,0.34-0.03,0.6,0c0.34,0.03,0.5,0.05,0.49,0.05c2.04,0,3.06-0.58,3.06-1.75c0-0.55-0.45-1.06-1.34-1.53
			c-1.46-0.74-2.3-1.2-2.51-1.37c-0.9-0.71-1.35-1.65-1.35-2.81c0-1.51,0.61-2.69,1.83-3.53c1.1-0.75,2.5-1.13,4.18-1.13
			c0.15,0,0.26,0.07,0.33,0.2c0.07,0.13,0.21,0.54,0.41,1.22s0.3,1.1,0.3,1.24c0,0.11-0.1,0.18-0.31,0.21
			c-0.69,0.09-1.39,0.18-2.09,0.26c-0.83,0.21-1.25,0.63-1.25,1.27c0,0.45,0.44,0.91,1.31,1.37c1.3,0.67,2.12,1.16,2.46,1.46
			C570.88,97.66,571.32,98.67,571.32,99.9z"/>
	</g>
</g>
</svg>
