<?xml version="1.0" encoding="utf-8"?>
<!-- Generator: Adobe Illustrator 23.0.1, SVG Export Plug-In . SVG Version: 6.00 Build 0)  -->
<svg version="1.1" id="Layer_1" xmlns="http://www.w3.org/2000/svg" xmlns:xlink="http://www.w3.org/1999/xlink" x="0px" y="0px"
	 viewBox="0 0 200 200" style="enable-background:new 0 0 200 200;" xml:space="preserve">
<style type="text/css">
	.st0{fill:#DDDB99;}
	.st1{fill:#4D4D4D;stroke:#FFFFFF;stroke-miterlimit:10;}
	.st2{fill:#BE1E2D;}
	.st3{fill:#FFFFFF;}
	.st4{fill:#2B2831;stroke:#FFFFFF;stroke-miterlimit:10;}
	.st5{fill:#2B2831;}
</style>
<g>
	<rect x="0.09" y="91.74" class="st0" width="199.91" height="16.45"/>
	<g>
		<path class="st1" d="M181.08,100.14c0-2.81-0.14-5.58-0.42-8.3l19.28-18.41l-27.04-46.83l-25.79,7.56
			c-4.29-3.07-8.89-5.74-13.75-7.93l-6.35-26.13H72.94l-6.36,26.13c-4.86,2.19-9.46,4.85-13.75,7.93l-25.79-7.56L0,73.42
			l19.28,18.41c-0.28,2.72-0.42,5.49-0.42,8.3c0,2.67,0.14,5.3,0.39,7.91L0,126.42l27.04,46.83l25.38-7.43
			c4.44,3.22,9.22,5.99,14.28,8.28l6.24,25.66h54.08l6.24-25.66c5.06-2.28,9.84-5.06,14.28-8.28l25.38,7.43l27.04-46.83
			l-19.25-18.38C180.95,105.43,181.08,102.79,181.08,100.14z"/>
		<g>
			<g>
				<path class="st2" d="M100.85,159.82c-34.03,0-61.71-27.68-61.71-61.72c0-34.03,27.68-61.71,61.71-61.71v12.48
					c-27.15,0-49.24,22.1-49.24,49.24c0,27.15,22.09,49.25,49.24,49.25c27.15,0,49.24-22.1,49.24-49.25h12.47
					C162.56,132.13,134.88,159.82,100.85,159.82z"/>
			</g>
		</g>
		<g>
			<path class="st3" d="M123.82,121.35c-13.67,12.5-34.86,11.55-47.34-2.14c-12.49-13.64-11.56-34.85,2.12-47.37
				c13.65-12.48,34.86-11.52,47.34,2.14C138.43,87.64,137.48,108.85,123.82,121.35z"/>
			<polygon class="st4" points="137.33,63.59 96.74,90.79 106.6,101.57 			"/>
			<path class="st5" d="M111.44,107.79c-6.18,5.65-15.77,5.22-21.41-0.97c-5.65-6.17-5.23-15.76,0.96-21.42
				c6.18-5.65,15.76-5.21,21.41,0.97C118.05,92.55,117.61,102.15,111.44,107.79z"/>
		</g>
	</g>
</g>
</svg>
