<?xml version="1.0" encoding="utf-8"?>
<!-- Generator: Adobe Illustrator 23.0.1, SVG Export Plug-In . SVG Version: 6.00 Build 0)  -->
<svg version="1.1" id="Layer_1" xmlns="http://www.w3.org/2000/svg" xmlns:xlink="http://www.w3.org/1999/xlink" x="0px" y="0px"
	 viewBox="0 0 200 100" style="enable-background:new 0 0 200 100;" xml:space="preserve">
<style type="text/css">
	.st0{fill:#FFFFFF;}
</style>
<path class="st0" d="M50.28,33.15l-0.14-17.24l-4.11-0.41l-1.65,9.16c-2.96,0.7-5.72,1.99-8.16,3.74l-6.83-5.3l-5.3,5.5l5.74,7.37
	l0,0c-1.77,2.77-3.21,5.29-3.87,8.7l-7.83,1.47v7.79l7.83,1.25c0.58,2.98,1.63,5.78,3.08,8.29l-4.31,7.96l4.21,4.38l7.43-4.25
	c2.43,1.71,5.15,2.96,8.08,3.65l1.97,8.29l4.24,0.01l-0.13-16.33c0,0-14.27-1.55-13.92-17.47C36.63,49.7,35.55,36.6,50.28,33.15z"/>
<path class="st0" d="M148.98,33.15l0.14-17.24l4.11-0.41l1.65,9.16c2.96,0.7,5.72,1.99,8.16,3.74l6.83-5.3l5.3,5.5l-5.74,7.37l0,0
	c1.77,2.77,3.21,5.29,3.87,8.7l7.83,1.47v7.79l-7.83,1.25c-0.58,2.98-1.63,5.78-3.08,8.29l4.31,7.96l-4.21,4.38l-7.43-4.25
	c-2.43,1.71-5.15,2.96-8.08,3.65l-1.97,8.29l-4.24,0.01l0.13-16.33c0,0,14.27-1.55,13.92-17.47
	C162.63,49.7,163.71,36.6,148.98,33.15z"/>
<g>
	<path class="st0" d="M124.2,67.24l-15.33-15.38L101,59.72l15.78,15.82c-1.55,4.78-2.25,9.65,2.12,14.6
		c2.67,3.02,6.6,6.37,12.37,5.75l-9.37-9.12l13.67-14.42l9.56,9.68c0.96-5.91-2.26-10-4.94-12.68
		C135.57,64.75,129.53,64.96,124.2,67.24z"/>
	<path class="st0" d="M81.08,23.99c2.25-5.31,2.67-11.06-1.92-15.65c-2.67-2.67-6.08-5.82-11.99-4.86l8.44,8.42L61.37,26.13l-9-9.12
		c-0.62,5.77,2.69,9.73,5.71,12.41c4.97,4.39,10.15,3.83,14.94,2.26l16.1,16.14L97,39.96L81.08,23.99z"/>
</g>
<path class="st0" d="M145.6,17.03l-9.12,9.37l-14.42-13.67l9.68-9.56c-5.91-0.96-10,2.26-12.68,4.94
	c-4.61,4.61-4.4,10.66-2.12,15.98L73.7,67.21c-5.31-2.25-11.06-2.67-15.65,1.92c-2.67,2.67-5.82,6.08-4.86,11.99l8.42-8.44
	l14.23,14.23l-9.12,9c5.77,0.62,9.73-2.69,12.41-5.71c4.39-4.97,3.83-10.15,2.26-14.94l43.88-43.75c4.78,1.55,9.65,2.25,14.6-2.12
	C142.88,26.72,146.23,22.8,145.6,17.03z M101.54,49.64c0,1.21-0.99,2.2-2.2,2.2c-1.21,0-2.2-0.99-2.2-2.2v0c0-1.21,0.99-2.2,2.2-2.2
	C100.55,47.44,101.54,48.43,101.54,49.64L101.54,49.64z"/>
</svg>
