<?xml version="1.0" encoding="utf-8"?>
<!-- Generator: Adobe Illustrator 23.0.1, SVG Export Plug-In . SVG Version: 6.00 Build 0)  -->
<svg version="1.1" id="Layer_1" xmlns="http://www.w3.org/2000/svg" xmlns:xlink="http://www.w3.org/1999/xlink" x="0px" y="0px"
	 viewBox="0 0 580 110" style="enable-background:new 0 0 580 110;" xml:space="preserve">
<style type="text/css">
	.st0{fill:#FFFFFF;}
</style>
<path class="st0" d="M51.53,37.58l-0.17-18.54l-5.04-0.44l-2.03,9.85c-3.63,0.76-7.02,2.14-10.01,4.02l-8.38-5.7l-6.5,5.92
	l7.05,7.93l0,0c-2.17,2.98-3.94,5.69-4.75,9.35l-9.61,1.58v8.37l9.61,1.35c0.71,3.21,2,6.21,3.77,8.91l-5.28,8.56l5.17,4.71
	l9.11-4.57c2.98,1.84,6.32,3.18,9.92,3.92l2.42,8.91l5.21,0.01l-0.16-17.56c0,0-17.52-1.67-17.08-18.79
	C34.79,55.37,33.46,41.29,51.53,37.58z"/>
<path class="st0" d="M172.65,37.58l0.17-18.54l5.04-0.44l2.03,9.85c3.63,0.76,7.02,2.14,10.01,4.02l8.38-5.7l6.5,5.92l-7.05,7.93
	l0,0c2.17,2.98,3.94,5.69,4.75,9.35l9.61,1.58v8.37l-9.61,1.35c-0.71,3.21-2,6.21-3.77,8.91l5.28,8.56l-5.17,4.71l-9.11-4.57
	c-2.98,1.84-6.32,3.18-9.92,3.92l-2.42,8.91l-5.21,0.01l0.16-17.56c0,0,17.52-1.67,17.08-18.79
	C189.4,55.37,190.73,41.29,172.65,37.58z"/>
<g>
	<path class="st0" d="M142.25,74.09l-18.81-16.53L113.77,66l19.36,17.02c-1.9,5.14-2.76,10.38,2.6,15.7
		c3.28,3.25,8.1,6.85,15.18,6.18l-11.5-9.81l16.77-15.5L167.92,90c1.17-6.35-2.78-10.76-6.06-13.63
		C156.19,71.41,148.78,71.64,142.25,74.09z"/>
	<path class="st0" d="M89.33,27.58c2.76-5.71,3.28-11.89-2.36-16.83c-3.28-2.88-7.47-6.26-14.72-5.23l10.35,9.06l-17.46,15.3
		L54.1,20.07c-0.76,6.2,3.3,10.47,7.01,13.34c6.1,4.72,12.46,4.12,18.34,2.43L99.2,53.19l9.66-8.44L89.33,27.58z"/>
</g>
<path class="st0" d="M168.51,20.24l-11.19,10.08l-17.69-14.7l11.88-10.28c-7.25-1.03-12.28,2.44-15.56,5.31
	c-5.66,4.96-5.4,11.46-2.6,17.18L80.27,74.21c-6.52-2.42-13.57-2.87-19.21,2.07c-3.28,2.88-7.14,6.54-5.97,12.9l10.33-9.07
	l17.46,15.3l-11.2,9.68c7.08,0.67,11.94-2.89,15.23-6.14c5.39-5.34,4.7-10.92,2.77-16.07l53.84-47.04
	c5.86,1.66,11.85,2.42,17.92-2.28C165.16,30.67,169.27,26.45,168.51,20.24z M114.44,55.31c0,1.3-1.21,2.36-2.7,2.36
	c-1.48,0-2.7-1.06-2.7-2.36v0c0-1.3,1.21-2.36,2.7-2.36C113.23,52.94,114.44,54.01,114.44,55.31L114.44,55.31z"/>
<g>
	<path class="st0" d="M268.51,75.36c0,0.39-0.27,0.65-0.8,0.8c-0.64,0.17-2.64,0.26-5.98,0.26c-3.07,0-5.04-0.09-5.92-0.26
		c-0.73-0.15-1.19-0.63-1.38-1.45c-0.73-3.09-1.3-4.74-1.7-4.95c-0.34-0.15-3.22-0.22-8.62-0.22c-3.65,0-5.58,0.1-5.82,0.29
		c-0.36,0.34-0.77,1.49-1.22,3.44c-0.41,1.78-0.9,2.75-1.48,2.89c-0.73,0.17-3.17,0.26-7.33,0.26c-3.28,0-4.92-0.31-4.92-0.93
		c0-0.56,2.42-7.41,7.27-20.55c5.25-14.21,8.1-22.03,8.55-23.44c0.26-0.81,0.56-1.22,0.9-1.22c0.58,0,1.47,0.05,2.69,0.16
		c1.21,0.11,2.12,0.16,2.72,0.16c0.58,0,1.43-0.04,2.56-0.11c1.13-0.07,1.97-0.11,2.52-0.11c0.41,0,0.78,0.35,1.13,1.06
		c1.05,2.25,4.12,9.97,9.2,23.15C265.96,67.86,268.51,74.78,268.51,75.36z M245.71,46.06c-0.45,0.94-1.21,2.99-2.28,6.14
		c-1.16,3.34-1.74,5.31-1.74,5.89c0,0.39,0.64,0.6,1.93,0.64c0.66,0.04,1.76,0.06,3.28,0.06c1.42,0,2.2-0.17,2.35-0.51
		c0.04-0.11,0.06-0.26,0.06-0.45c0-0.71-0.49-2.66-1.48-5.85C246.87,48.89,246.16,46.92,245.71,46.06z"/>
	<path class="st0" d="M304.66,46.93c0,1.59-0.08,3.97-0.23,7.14c-0.15,3.17-0.23,5.55-0.23,7.14c0,1.54,0.05,3.86,0.16,6.95
		c0.11,3.09,0.16,5.39,0.16,6.91c0,0.58-0.27,0.94-0.8,1.09c-0.82,0.21-2.54,0.32-5.18,0.32c-2.34,0-3.97-0.06-4.89-0.19
		c-0.41-0.06-0.67-0.32-0.77-0.77c-0.06-0.64-0.13-1.29-0.19-1.93c-0.11-0.99-0.26-1.48-0.45-1.48c0.3,0-0.78,0.73-3.25,2.19
		c-2.47,1.46-4.71,2.19-6.72,2.19c-5.68,0-9.05-2.56-10.1-7.69c-0.47-2.38-0.71-5.83-0.71-10.35c0-4.89,0.4-8.75,1.19-11.58
		c0.24-0.88,0.68-1.32,1.32-1.32c0.99,0,2.49,0.01,4.5,0.03c2.01,0.02,3.52,0.03,4.5,0.03c0.66,0,1,0.28,1,0.84
		c0,0.15-0.02,0.38-0.06,0.68c-0.45,2.92-0.68,5.87-0.68,8.88c0,3.73,0.12,6.28,0.35,7.65c0.39,2.36,1.79,3.54,4.21,3.54
		c0.94,0,1.97-0.42,3.07-1.25c1.1-0.84,1.68-1.7,1.72-2.6c0.04-0.79,0.06-6.17,0.06-16.14c0-0.71,0.05-1.13,0.16-1.25
		c0.13-0.21,0.51-0.32,1.16-0.32c1.05,0,2.63,0.01,4.74,0.03c2.11,0.02,3.69,0.03,4.74,0.03c0.64,0,1.02,0.16,1.13,0.48
		C304.63,46.33,304.66,46.59,304.66,46.93z"/>
	<path class="st0" d="M331.48,66.74c0,0.64-0.08,1.62-0.24,2.93c-0.16,1.31-0.24,2.27-0.24,2.88c0,0.61-0.06,1-0.19,1.17
		c-0.13,0.17-0.48,0.42-1.06,0.74c-2.77,1.52-5.83,2.28-9.2,2.28c-6.2,0-9.29-2.37-9.29-7.11c0-1.42,0.05-3.54,0.16-6.38
		c0.11-2.84,0.16-4.97,0.16-6.38c0-0.94-0.55-1.41-1.64-1.41c-0.09,0-0.22,0-0.42,0c-0.19,0.02-0.33,0.03-0.42,0.03
		c-0.82,0-1.22-0.29-1.22-0.87c0-0.34,0.03-0.87,0.08-1.58c0.05-0.71,0.08-1.23,0.08-1.58c0-0.45-0.03-1.14-0.08-2.06
		c-0.05-0.92-0.08-1.61-0.08-2.06c0-0.43,0.69-0.66,2.06-0.71c0.77-0.02,1.19-0.24,1.25-0.64c0.13-0.81,0.17-2.1,0.13-3.86
		c-0.09-2.77-0.13-4.08-0.13-3.96c0-2.49,0.24-3.73,0.71-3.73c0.58,0,1.4,0.13,2.48,0.39c1.22,0.28,2.07,0.44,2.54,0.48
		c1.09,0.15,2.74,0.35,4.95,0.61c0.54,0.04,0.8,0.23,0.8,0.55c0,0.86-0.07,2.15-0.21,3.89c-0.14,1.74-0.21,3.04-0.21,3.92
		c0,1.05,0.31,1.58,0.93,1.58c0.75,0,1.89-0.03,3.41-0.1c1.52-0.06,2.67-0.1,3.44-0.1c0.47,0,0.71,0.16,0.71,0.48
		c0,0.49-0.05,1.23-0.16,2.22c-0.11,0.99-0.16,1.73-0.16,2.22c0,0.51,0.01,1.27,0.03,2.25c0.02,0.99,0.03,1.74,0.03,2.25
		c0,0.45-0.31,0.68-0.93,0.68c-0.43,0-1.15-0.02-2.15-0.05c-1.01-0.03-1.73-0.05-2.15-0.05h-2.41c-0.32,0-0.48,0.47-0.48,1.41
		c0,0.51,0,1.28,0,2.28c0.02,1.03,0.03,1.79,0.03,2.28c0,1.8,0.2,3.04,0.61,3.73c0.58,0.92,1.72,1.38,3.41,1.38
		c0.54,0,1.3-0.12,2.3-0.37c1-0.25,1.7-0.37,2.11-0.37C331.25,66.03,331.48,66.27,331.48,66.74z"/>
	<path class="st0" d="M365.79,60.34c0,4.89-1.5,8.85-4.49,11.9c-2.99,3.04-6.92,4.57-11.79,4.57c-4.72,0-8.6-1.5-11.64-4.5
		c-3.04-3-4.57-6.86-4.57-11.58c0-4.97,1.46-9.01,4.37-12.11c2.92-3.1,6.86-4.65,11.83-4.65c4.84,0,8.77,1.52,11.77,4.55
		C364.29,51.56,365.79,55.5,365.79,60.34z M355.24,60.34c0-1.69-0.53-3.19-1.58-4.49c-1.05-1.3-2.41-1.95-4.08-1.95
		c-1.69,0-3.09,0.66-4.18,1.99c-1.03,1.24-1.54,2.72-1.54,4.44c0,1.74,0.51,3.23,1.54,4.47c1.09,1.33,2.49,1.99,4.18,1.99
		c1.67,0,3.05-0.67,4.15-1.99C354.74,63.57,355.24,62.08,355.24,60.34z"/>
	<path class="st0" d="M417.85,75.17c0,0.67-0.31,1-0.93,1h-11.38c-0.62,0-0.93-0.38-0.93-1.13c0-2.17,0.08-5.41,0.24-9.74
		c0.16-4.33,0.24-7.58,0.24-9.74c0-0.62-0.1-0.95-0.29-1c-0.24,0.13-1.67,3.44-4.31,9.94c-1.54,3.82-3.09,7.62-4.63,11.42
		c-0.21,0.49-0.48,0.78-0.8,0.87c-0.11,0.02-0.54,0.03-1.29,0.03c-1.11,0-1.78-0.21-1.99-0.64c-1.16-2.36-2.68-5.79-4.57-10.29
		c-2.02-4.76-3.53-8.2-4.53-10.32c-0.04-0.11-0.14-0.22-0.29-0.35c-0.15,0.19-0.22,0.5-0.22,0.93c0,2.1,0.05,5.25,0.16,9.45
		c0.11,4.2,0.16,7.35,0.16,9.45c0,0.75-0.3,1.13-0.9,1.13h-10.74c-0.43,0-0.69-0.07-0.79-0.21c-0.1-0.14-0.14-0.38-0.14-0.72
		c0-2.34,0.11-5.85,0.34-10.53c0.23-4.68,0.34-8.2,0.34-10.53c0-2.49-0.11-7.15-0.32-13.99c-0.02-1.78-0.12-4.43-0.29-7.94
		l-0.03-0.55c-0.02-0.43,0.43-0.64,1.35-0.64c1.18,0,2.95-0.04,5.31-0.11c2.36-0.07,4.13-0.11,5.31-0.11c0.24,0,0.57,0.45,1,1.35
		l9.39,20.61c0.67,1.39,1.22,2.09,1.67,2.09c0.24,0,0.74-0.8,1.51-2.41c2.17-4.5,5.37-11.29,9.61-20.36
		c0.36-0.84,0.76-1.25,1.19-1.25c0.62,0,1.56,0.03,2.81,0.1s2.2,0.1,2.85,0.1c0.54,0,1.36-0.05,2.46-0.16
		c1.1-0.11,1.92-0.16,2.46-0.16c0.64,0,0.96,0.26,0.96,0.77c0,2.53-0.09,6.31-0.27,11.34c-0.18,5.03-0.27,8.81-0.27,11.34
		c0,2.34,0.1,5.84,0.29,10.52C417.76,69.36,417.85,72.85,417.85,75.17z"/>
	<path class="st0" d="M454.54,60.34c0,4.89-1.5,8.85-4.49,11.9c-2.99,3.04-6.92,4.57-11.79,4.57c-4.72,0-8.6-1.5-11.64-4.5
		c-3.04-3-4.57-6.86-4.57-11.58c0-4.97,1.46-9.01,4.37-12.11c2.92-3.1,6.86-4.65,11.83-4.65c4.84,0,8.77,1.52,11.77,4.55
		C453.04,51.56,454.54,55.5,454.54,60.34z M444,60.34c0-1.69-0.53-3.19-1.58-4.49c-1.05-1.3-2.41-1.95-4.08-1.95
		c-1.69,0-3.09,0.66-4.18,1.99c-1.03,1.24-1.54,2.72-1.54,4.44c0,1.74,0.51,3.23,1.54,4.47c1.09,1.33,2.49,1.99,4.18,1.99
		c1.67,0,3.05-0.67,4.15-1.99C443.49,63.57,444,62.08,444,60.34z"/>
	<path class="st0" d="M479.95,66.74c0,0.64-0.08,1.62-0.24,2.93c-0.16,1.31-0.24,2.27-0.24,2.88c0,0.61-0.06,1-0.19,1.17
		c-0.13,0.17-0.48,0.42-1.06,0.74c-2.77,1.52-5.83,2.28-9.2,2.28c-6.2,0-9.29-2.37-9.29-7.11c0-1.42,0.05-3.54,0.16-6.38
		c0.11-2.84,0.16-4.97,0.16-6.38c0-0.94-0.55-1.41-1.64-1.41c-0.09,0-0.22,0-0.42,0c-0.19,0.02-0.33,0.03-0.42,0.03
		c-0.82,0-1.22-0.29-1.22-0.87c0-0.34,0.03-0.87,0.08-1.58c0.05-0.71,0.08-1.23,0.08-1.58c0-0.45-0.03-1.14-0.08-2.06
		c-0.05-0.92-0.08-1.61-0.08-2.06c0-0.43,0.69-0.66,2.06-0.71c0.77-0.02,1.19-0.24,1.25-0.64c0.13-0.81,0.17-2.1,0.13-3.86
		c-0.09-2.77-0.13-4.08-0.13-3.96c0-2.49,0.24-3.73,0.71-3.73c0.58,0,1.4,0.13,2.48,0.39c1.22,0.28,2.07,0.44,2.54,0.48
		c1.09,0.15,2.74,0.35,4.95,0.61c0.54,0.04,0.8,0.23,0.8,0.55c0,0.86-0.07,2.15-0.21,3.89c-0.14,1.74-0.21,3.04-0.21,3.92
		c0,1.05,0.31,1.58,0.93,1.58c0.75,0,1.89-0.03,3.41-0.1c1.52-0.06,2.67-0.1,3.44-0.1c0.47,0,0.71,0.16,0.71,0.48
		c0,0.49-0.05,1.23-0.16,2.22c-0.11,0.99-0.16,1.73-0.16,2.22c0,0.51,0.01,1.27,0.03,2.25c0.02,0.99,0.03,1.74,0.03,2.25
		c0,0.45-0.31,0.68-0.93,0.68c-0.43,0-1.15-0.02-2.15-0.05c-1.01-0.03-1.73-0.05-2.15-0.05h-2.41c-0.32,0-0.48,0.47-0.48,1.41
		c0,0.51,0,1.28,0,2.28c0.02,1.03,0.03,1.79,0.03,2.28c0,1.8,0.2,3.04,0.61,3.73c0.58,0.92,1.72,1.38,3.41,1.38
		c0.54,0,1.3-0.12,2.3-0.37c1-0.25,1.7-0.37,2.11-0.37C479.72,66.03,479.95,66.27,479.95,66.74z"/>
	<path class="st0" d="M495.22,61.4c0,1.57,0.03,3.9,0.1,7c0.06,3.1,0.1,5.42,0.1,6.96c0,0.45-0.27,0.72-0.8,0.8
		c-0.73,0.13-2.37,0.19-4.92,0.19c-2.57,0-4.22-0.06-4.95-0.19c-0.47-0.08-0.76-0.23-0.87-0.42c-0.04-0.09-0.06-0.41-0.06-0.96
		c0-1.48,0.03-3.7,0.1-6.67c0.06-2.97,0.1-5.2,0.1-6.71c0-6.09-0.24-10.93-0.71-14.53c-0.04-0.34-0.06-0.57-0.06-0.68
		c0-0.43,0.29-0.64,0.87-0.64c0.6,0,1.52,0.06,2.75,0.19c1.23,0.13,2.16,0.19,2.78,0.19s1.55-0.05,2.8-0.16
		c1.24-0.11,2.18-0.16,2.8-0.16c0.51,0,0.77,0.21,0.77,0.64c0,0.09-0.02,0.29-0.06,0.61C495.46,51.05,495.22,55.89,495.22,61.4z
		 M496.06,37.51c0,3.73-2.1,5.6-6.3,5.6c-1.8,0-3.29-0.47-4.47-1.42c-1.29-1.03-1.93-2.42-1.93-4.18c0-1.67,0.66-3.04,1.99-4.12
		c1.22-0.99,2.69-1.48,4.41-1.48c1.67,0,3.12,0.5,4.34,1.51C495.41,34.5,496.06,35.86,496.06,37.51z"/>
	<path class="st0" d="M532.37,53.85c0,3.67-0.12,5.83-0.35,6.5c-0.49,1.52-1.97,4.11-4.44,7.75c-2.14,3.13-3.98,5.57-5.5,7.33
		c-0.56,0.66-2.24,1-5.05,1c-2.44,0-4.03-0.09-4.76-0.26c-0.45-0.11-0.83-0.32-1.13-0.64c-1.29-1.39-3.12-3.82-5.5-7.27
		c-2.55-3.71-4.07-6.25-4.57-7.62c-0.54-1.48-0.8-3.7-0.8-6.66c0-0.84,0.01-2.1,0.03-3.78c0.02-1.68,0.03-2.95,0.03-3.81
		c0-0.56,0.38-0.84,1.13-0.84c1.09,0,2.74,0.03,4.94,0.1c2.2,0.06,3.84,0.1,4.94,0.1c0.49,0,0.74,0.33,0.74,1
		c0,0.6-0.04,1.51-0.13,2.72c-0.09,1.21-0.13,2.13-0.13,2.75c0,2.23,0.06,4.05,0.19,5.47c0.06,0.73,0.69,2.1,1.87,4.12
		c1.22,2.12,2.11,3.18,2.67,3.18c0.54,0,1.39-1.04,2.57-3.12c1.14-1.95,1.75-3.28,1.83-3.99c0.17-1.52,0.26-3.36,0.26-5.53
		c0-0.62-0.06-1.56-0.19-2.81c-0.13-1.25-0.19-2.18-0.19-2.78c0-0.66,0.22-1,0.67-1c0.51,0,1.28,0.01,2.3,0.03
		c1.02,0.02,1.78,0.03,2.3,0.03s1.29-0.04,2.33-0.13c1.04-0.09,1.82-0.13,2.33-0.13c0.54,0,0.89,0.28,1.06,0.84
		C532.18,47.61,532.37,50.09,532.37,53.85z"/>
	<path class="st0" d="M566.2,58.7c0,2.17-0.7,3.4-2.09,3.7c-0.24,0.04-2.46,0.28-6.66,0.71c-2.53,0.28-6.3,0.61-11.32,1
		c0.3,1.39,1.21,2.46,2.73,3.18c1.24,0.6,2.66,0.9,4.25,0.9c1.91,0,3.83-0.51,5.76-1.54c0.81-0.51,1.63-1.03,2.44-1.54
		c0.45,0.21,1.21,1.31,2.27,3.28c1.06,1.97,1.59,3.23,1.59,3.76c0,0.15-0.16,0.4-0.48,0.74c-2.62,2.81-6.68,4.21-12.19,4.21
		c-5.1,0-9.22-1.49-12.35-4.47c-3.22-3.02-4.82-7.06-4.82-12.12c0-4.93,1.44-8.97,4.31-12.12c2.96-3.26,6.88-4.89,11.77-4.89
		c4.12,0,7.61,1.5,10.48,4.5C564.76,50.99,566.2,54.56,566.2,58.7z M554.94,56.74c0-1.33-0.47-2.5-1.42-3.51
		c-0.94-1.01-2.07-1.51-3.38-1.51c-1.35,0-2.47,0.57-3.34,1.7c-0.82,1.05-1.22,2.28-1.22,3.7c0,0.58,0.3,0.87,0.9,0.87
		c1.59,0,4.05-0.25,7.4-0.74C554.59,57.15,554.94,56.98,554.94,56.74z"/>
</g>
</svg>
