<?xml version="1.0" encoding="utf-8"?>
<!-- Generator: Adobe Illustrator 22.1.0, SVG Export Plug-In . SVG Version: 6.00 Build 0)  -->
<svg version="1.1" id="Layer_1" xmlns="http://www.w3.org/2000/svg" xmlns:xlink="http://www.w3.org/1999/xlink" x="0px" y="0px"
	 viewBox="0 0 205.6 248.9" style="enable-background:new 0 0 205.6 248.9;" xml:space="preserve">
<style type="text/css">
	.st0{fill:#FFFFFF;stroke:#000000;stroke-width:3;stroke-miterlimit:10;}
</style>
<g transform="translate(0.000000,177.000000) scale(0.100000,-0.100000)">
	<path class="st0" d="M808.2,1651.9C625.8,1545.4,594,1517.8,594,1458.4v-38.7l-48.4,20.7c-26.3,9.7-55.3,19.3-65,19.3
		c-30.4,0-374.6-205.9-407.7-243.3c-30.4-33.2-31.8-45.6-31.8-251.5c0-171.4,4.1-223.9,20.7-247.4C72.9,701,139.3,655.4,207,616.7
		c69.1-38.7,124.4-76,124.4-81.5s-58-42.8-129.9-82.9C122.7,406.6,66,365.1,56.3,344.4C48,325,41.1,224.1,41.1,99.7
		c0-182.4,2.8-217,24.9-240.5c29-35.9,377.3-237.7,407.7-237.7c12.4,0,42.8,12.4,67.7,27.6l45.6,27.6l6.9-73.3l6.9-71.9l199-113.3
		c110.6-63.6,212.8-114.7,228.1-114.7c15.3,0,116.1,51.1,225.3,113.3l197.6,113.3v73.3c0,40.1,4.1,73.3,11.1,73.3
		c5.5,0,29-12.4,51.1-27.6c23.5-15.2,52.5-27.6,65-27.6c13.8,0,112,49.8,217,112c158.9,91.2,194.9,118.9,207.3,153.4
		c22.1,60.8,19.3,410.5-2.8,453.3c-9.7,19.3-66.3,63.6-127.2,99.5c-181.1,105-179.7,89.8-24.9,176.9c80.2,45.6,142.4,89.8,152,110.6
		c23.5,47,23.5,422.9,0,469.9c-23.5,45.6-387,262.6-440.9,262.6c-22.1,0-55.3-9.7-73.3-22.1c-34.6-22.1-34.6-22.1-34.6,24.9
		c0,26.3-8.3,56.7-16.6,69.1c-9.7,11.1-95.4,66.3-189.4,120.2c-127.2,73.3-183.8,98.1-221.1,98.1
		C987.9,1748.6,928.4,1722.4,808.2,1651.9z M1174.5,1568.9c77.4-44.2,124.4-78.8,124.4-94c0-23.5-236.3-167.2-275-167.2
		c-34.6,1.4-270.9,143.7-273.7,167.2c-4.1,20.7,235,164.5,276.4,164.5C1039,1639.4,1106.7,1607.6,1174.5,1568.9z M1340.3,1353.3
		V1287l-82.9-45.6l-82.9-45.6V1106v-88.5l-51.1,31.8c-51.1,31.8-52.5,35.9-56.7,121.6l-2.8,88.5l134.1,78.8
		c74.6,42.8,136.8,78.8,139.6,80.2C1338.9,1418.3,1340.3,1389.3,1340.3,1353.3z M864.9,1332.6l129.9-73.3v-85.7V1088l-58-34.6
		l-59.4-35.9l-6.9,92.6l-6.9,92.6l-71.9,42.8c-69.1,40.1-73.3,44.2-73.3,100.9c0,31.8,4.1,58,8.3,58S793,1371.3,864.9,1332.6z
		 M721.1,1204.1l49.8-29l-149.3-85.7l-149.3-85.7l-121.6,70.5c-67.7,38.7-127.2,74.6-132.7,80.2c-5.5,4.1,52.5,47,129.9,92.6
		l141,85.7l89.8-49.8C628.5,1255.2,692.1,1219.3,721.1,1204.1z M1684.5,1263.5c65-38.7,129.9-78.8,143.7-88.5
		c22.1-13.8,11.1-24.9-102.3-89.8c-70.5-40.1-134.1-71.9-143.7-71.9c-16.6,0-301.3,157.6-294.4,163.1
		c6.9,6.9,266.8,157.6,272.3,158.9C1562.8,1335.4,1618.1,1303.6,1684.5,1263.5z M828.9,1049.3v-80.2L758.4,929
		c-114.7-63.6-123-77.4-123-188v-96.7l-55.3-27.6c-29-15.2-60.8-27.6-69.1-27.6s-13.8,66.3-13.8,185.2v185.2l149.3,84.3
		c81.5,45.6,156.2,84.3,165.9,84.3C823.4,1128,828.9,1103.2,828.9,1049.3z M1412.2,1042.4l149.3-87.1V772.8
		c0-138.2-4.1-183.8-16.6-183.8c-9.7,0-44.2,13.8-76,30.4l-59.4,31.8V748c0,52.5-5.5,103.7-11.1,112c-5.5,8.3-45.6,35.9-88.5,60.8
		l-80.2,44.2v81.5c0,52.5,5.5,81.5,16.6,81.5C1254.6,1128,1329.3,1089.3,1412.2,1042.4z M441.9,785.3V629.1l-30.4,16.6
		c-18,9.7-80.2,44.2-138.2,77.4l-107.8,62.2v156.2V1099l138.2-78.8l136.8-78.8L441.9,785.3z M1893.2,944.2V789.4l-71.9-42.8
		c-40.1-23.5-102.3-59.4-138.2-81.5l-66.3-37.3v157.6V943l135.4,77.4c73.3,42.8,135.4,78.8,138.2,78.8
		C1891.8,1100.4,1893.2,1029.9,1893.2,944.2z M1174.5,938.7c76-44.2,138.2-82.9,138.2-87.1c0-8.3-269.5-165.9-286.1-165.9
		c-19.3,0-280.6,153.4-280.6,165.9s259.8,165.9,280.6,165.9C1032.1,1017.5,1098.4,981.5,1174.5,938.7z M1358.3,449.4
		c-15.2-13.8-277.8-164.5-287.5-164.5c-4.1,0-5.5,76-4.1,168.6l4.1,170l145.1,84.3l145.1,82.9l4.1-165.9
		C1366.6,535.1,1363.8,454.9,1358.3,449.4z M849.7,701l138.2-81.5l4.1-174.1l4.1-174.1l-149.3,87.1l-149.3,87.1l-4.1,168.6
		c-1.4,92.6,1.4,168.6,6.9,168.6C705.9,781.1,773.6,745.2,849.7,701z M623,408c67.7-40.1,127.2-76,129.9-82.9
		c4.1-5.5-58-47-136.8-92.6L473.7,151l-127.2,71.9C276,263,219.3,300.3,218,305.8c0,8.3,255.7,165.9,277.8,171.4
		C498.6,478.4,556.7,446.7,623,408z M1792.3,340.2l59.4-35.9l-135.4-77.4l-134.1-77.4l-55.3,31.8c-30.4,18-98.1,56.7-149.3,87.1
		l-94,53.9l135.4,77.4l134.1,77.4l91.2-49.8C1694.1,399.7,1760.5,361,1792.3,340.2z M826.2,192.3l-4.1-78.8l-74.6-42.8
		c-96.7-56.7-112-80.2-112-168.6c0-67.7-2.8-76-44.2-100.9C500-254.1,495.8-247.2,500-59.2l4.1,167.2l138.2,81.5
		C822,294.6,831.7,294.6,826.2,192.3z M1415,186.8l146.5-84.3V-68.9c0-94-5.5-171.4-12.4-171.4s-40.1,15.2-71.9,34.6l-60.8,33.2
		l-6.9,94l-6.9,92.6l-85.7,49.8l-87.1,48.4v80.2c0,58,5.5,78.8,19.3,78.8C1260.2,271.1,1334.8,233.8,1415,186.8z M370.1,127.4
		L442,84.6V-71.6v-157.6l-30.4,19.3c-18,11.1-80.2,47-138.2,80.2L165.5-68.9V88.7v157.6l66.3-37.3
		C267.8,186.8,330,150.9,370.1,127.4z M1893.2,88.7l-1.4-156.2L1755-146.3l-138.2-78.8v157.6V90.1l135.4,76
		c73.3,42.8,135.4,77.4,138.2,77.4C1891.8,243.5,1893.2,173,1893.2,88.7z M1188.3,102.5c82.9-48.4,152-94,152-103.7
		c0-16.6-287.5-183.8-316.5-183.8S718.4-17.7,718.4,0.2c0,15.2,282,186.6,308.2,188C1032.1,188.2,1105.4,149.5,1188.3,102.5z
		 M994.8-388.1c0-85.7-2.8-156.2-5.5-156.2c-2.8,0-71.9,38.7-152,84.3l-146.5,85.7v156.2v154.8l152-84.3l150.7-85.7L994.8-388.1z
		 M1368-215.4v-156.2l-87.1-49.8c-47-27.6-114.7-66.3-150.7-87.1l-66.3-38.7v157.6v156.2l149.3,85.7c81.5,48.4,149.3,87.1,152,87.1
		C1366.6-60.6,1368-131.1,1368-215.4z"/>
</g>
</svg>
